<?xml version="1.0" encoding="utf-8" standalone="no"?>
<!DOCTYPE svg PUBLIC "-//W3C//DTD SVG 1.1//EN"
  "http://www.w3.org/Graphics/SVG/1.1/DTD/svg11.dtd">
<!-- Created with matplotlib (https://matplotlib.org/) -->
<svg height="708.48pt" version="1.1" viewBox="0 0 1382.4 708.48" width="1382.4pt" xmlns="http://www.w3.org/2000/svg" xmlns:xlink="http://www.w3.org/1999/xlink">
 <defs>
  <style type="text/css">
*{stroke-linecap:butt;stroke-linejoin:round;}
  </style>
 </defs>
 <g id="figure_1">
  <g id="patch_1">
   <path d="M 0 708.48 
L 1382.4 708.48 
L 1382.4 0 
L 0 0 
z
" style="fill:#ffffff;"/>
  </g>
  <g id="axes_1">
   <g id="patch_2">
    <path d="M 172.8 630.5472 
L 1244.16 630.5472 
L 1244.16 85.0176 
L 172.8 85.0176 
z
" style="fill:#ffffff;"/>
   </g>
   <g id="matplotlib.axis_1">
    <g id="xtick_1">
     <g id="line2d_1">
      <defs>
       <path d="M 0 0 
L 0 3.5 
" id="mb8e445eb71" style="stroke:#000000;stroke-width:0.8;"/>
      </defs>
      <g>
       <use style="stroke:#000000;stroke-width:0.8;" x="221.001316" xlink:href="#mb8e445eb71" y="630.5472"/>
      </g>
     </g>
     <g id="text_1">
      <!-- 0 -->
      <defs>
       <path d="M 31.78125 66.40625 
Q 24.171875 66.40625 20.328125 58.90625 
Q 16.5 51.421875 16.5 36.375 
Q 16.5 21.390625 20.328125 13.890625 
Q 24.171875 6.390625 31.78125 6.390625 
Q 39.453125 6.390625 43.28125 13.890625 
Q 47.125 21.390625 47.125 36.375 
Q 47.125 51.421875 43.28125 58.90625 
Q 39.453125 66.40625 31.78125 66.40625 
z
M 31.78125 74.21875 
Q 44.046875 74.21875 50.515625 64.515625 
Q 56.984375 54.828125 56.984375 36.375 
Q 56.984375 17.96875 50.515625 8.265625 
Q 44.046875 -1.421875 31.78125 -1.421875 
Q 19.53125 -1.421875 13.0625 8.265625 
Q 6.59375 17.96875 6.59375 36.375 
Q 6.59375 54.828125 13.0625 64.515625 
Q 19.53125 74.21875 31.78125 74.21875 
z
" id="DejaVuSans-48"/>
      </defs>
      <g transform="translate(217.820066 645.145638)scale(0.1 -0.1)">
       <use xlink:href="#DejaVuSans-48"/>
      </g>
     </g>
    </g>
    <g id="xtick_2">
     <g id="line2d_2">
      <g>
       <use style="stroke:#000000;stroke-width:0.8;" x="356.318091" xlink:href="#mb8e445eb71" y="630.5472"/>
      </g>
     </g>
     <g id="text_2">
      <!-- 50 -->
      <defs>
       <path d="M 10.796875 72.90625 
L 49.515625 72.90625 
L 49.515625 64.59375 
L 19.828125 64.59375 
L 19.828125 46.734375 
Q 21.96875 47.46875 24.109375 47.828125 
Q 26.265625 48.1875 28.421875 48.1875 
Q 40.625 48.1875 47.75 41.5 
Q 54.890625 34.8125 54.890625 23.390625 
Q 54.890625 11.625 47.5625 5.09375 
Q 40.234375 -1.421875 26.90625 -1.421875 
Q 22.3125 -1.421875 17.546875 -0.640625 
Q 12.796875 0.140625 7.71875 1.703125 
L 7.71875 11.625 
Q 12.109375 9.234375 16.796875 8.0625 
Q 21.484375 6.890625 26.703125 6.890625 
Q 35.15625 6.890625 40.078125 11.328125 
Q 45.015625 15.765625 45.015625 23.390625 
Q 45.015625 31 40.078125 35.4375 
Q 35.15625 39.890625 26.703125 39.890625 
Q 22.75 39.890625 18.8125 39.015625 
Q 14.890625 38.140625 10.796875 36.28125 
z
" id="DejaVuSans-53"/>
      </defs>
      <g transform="translate(349.955591 645.145638)scale(0.1 -0.1)">
       <use xlink:href="#DejaVuSans-53"/>
       <use x="63.623047" xlink:href="#DejaVuSans-48"/>
      </g>
     </g>
    </g>
    <g id="xtick_3">
     <g id="line2d_3">
      <g>
       <use style="stroke:#000000;stroke-width:0.8;" x="491.634867" xlink:href="#mb8e445eb71" y="630.5472"/>
      </g>
     </g>
     <g id="text_3">
      <!-- 100 -->
      <defs>
       <path d="M 12.40625 8.296875 
L 28.515625 8.296875 
L 28.515625 63.921875 
L 10.984375 60.40625 
L 10.984375 69.390625 
L 28.421875 72.90625 
L 38.28125 72.90625 
L 38.28125 8.296875 
L 54.390625 8.296875 
L 54.390625 0 
L 12.40625 0 
z
" id="DejaVuSans-49"/>
      </defs>
      <g transform="translate(482.091117 645.145638)scale(0.1 -0.1)">
       <use xlink:href="#DejaVuSans-49"/>
       <use x="63.623047" xlink:href="#DejaVuSans-48"/>
       <use x="127.246094" xlink:href="#DejaVuSans-48"/>
      </g>
     </g>
    </g>
    <g id="xtick_4">
     <g id="line2d_4">
      <g>
       <use style="stroke:#000000;stroke-width:0.8;" x="626.951643" xlink:href="#mb8e445eb71" y="630.5472"/>
      </g>
     </g>
     <g id="text_4">
      <!-- 150 -->
      <g transform="translate(617.407893 645.145638)scale(0.1 -0.1)">
       <use xlink:href="#DejaVuSans-49"/>
       <use x="63.623047" xlink:href="#DejaVuSans-53"/>
       <use x="127.246094" xlink:href="#DejaVuSans-48"/>
      </g>
     </g>
    </g>
    <g id="xtick_5">
     <g id="line2d_5">
      <g>
       <use style="stroke:#000000;stroke-width:0.8;" x="762.268418" xlink:href="#mb8e445eb71" y="630.5472"/>
      </g>
     </g>
     <g id="text_5">
      <!-- 200 -->
      <defs>
       <path d="M 19.1875 8.296875 
L 53.609375 8.296875 
L 53.609375 0 
L 7.328125 0 
L 7.328125 8.296875 
Q 12.9375 14.109375 22.625 23.890625 
Q 32.328125 33.6875 34.8125 36.53125 
Q 39.546875 41.84375 41.421875 45.53125 
Q 43.3125 49.21875 43.3125 52.78125 
Q 43.3125 58.59375 39.234375 62.25 
Q 35.15625 65.921875 28.609375 65.921875 
Q 23.96875 65.921875 18.8125 64.3125 
Q 13.671875 62.703125 7.8125 59.421875 
L 7.8125 69.390625 
Q 13.765625 71.78125 18.9375 73 
Q 24.125 74.21875 28.421875 74.21875 
Q 39.75 74.21875 46.484375 68.546875 
Q 53.21875 62.890625 53.21875 53.421875 
Q 53.21875 48.921875 51.53125 44.890625 
Q 49.859375 40.875 45.40625 35.40625 
Q 44.1875 33.984375 37.640625 27.21875 
Q 31.109375 20.453125 19.1875 8.296875 
z
" id="DejaVuSans-50"/>
      </defs>
      <g transform="translate(752.724668 645.145638)scale(0.1 -0.1)">
       <use xlink:href="#DejaVuSans-50"/>
       <use x="63.623047" xlink:href="#DejaVuSans-48"/>
       <use x="127.246094" xlink:href="#DejaVuSans-48"/>
      </g>
     </g>
    </g>
    <g id="xtick_6">
     <g id="line2d_6">
      <g>
       <use style="stroke:#000000;stroke-width:0.8;" x="897.585194" xlink:href="#mb8e445eb71" y="630.5472"/>
      </g>
     </g>
     <g id="text_6">
      <!-- 250 -->
      <g transform="translate(888.041444 645.145638)scale(0.1 -0.1)">
       <use xlink:href="#DejaVuSans-50"/>
       <use x="63.623047" xlink:href="#DejaVuSans-53"/>
       <use x="127.246094" xlink:href="#DejaVuSans-48"/>
      </g>
     </g>
    </g>
    <g id="xtick_7">
     <g id="line2d_7">
      <g>
       <use style="stroke:#000000;stroke-width:0.8;" x="1032.90197" xlink:href="#mb8e445eb71" y="630.5472"/>
      </g>
     </g>
     <g id="text_7">
      <!-- 300 -->
      <defs>
       <path d="M 40.578125 39.3125 
Q 47.65625 37.796875 51.625 33 
Q 55.609375 28.21875 55.609375 21.1875 
Q 55.609375 10.40625 48.1875 4.484375 
Q 40.765625 -1.421875 27.09375 -1.421875 
Q 22.515625 -1.421875 17.65625 -0.515625 
Q 12.796875 0.390625 7.625 2.203125 
L 7.625 11.71875 
Q 11.71875 9.328125 16.59375 8.109375 
Q 21.484375 6.890625 26.8125 6.890625 
Q 36.078125 6.890625 40.9375 10.546875 
Q 45.796875 14.203125 45.796875 21.1875 
Q 45.796875 27.640625 41.28125 31.265625 
Q 36.765625 34.90625 28.71875 34.90625 
L 20.21875 34.90625 
L 20.21875 43.015625 
L 29.109375 43.015625 
Q 36.375 43.015625 40.234375 45.921875 
Q 44.09375 48.828125 44.09375 54.296875 
Q 44.09375 59.90625 40.109375 62.90625 
Q 36.140625 65.921875 28.71875 65.921875 
Q 24.65625 65.921875 20.015625 65.03125 
Q 15.375 64.15625 9.8125 62.3125 
L 9.8125 71.09375 
Q 15.4375 72.65625 20.34375 73.4375 
Q 25.25 74.21875 29.59375 74.21875 
Q 40.828125 74.21875 47.359375 69.109375 
Q 53.90625 64.015625 53.90625 55.328125 
Q 53.90625 49.265625 50.4375 45.09375 
Q 46.96875 40.921875 40.578125 39.3125 
z
" id="DejaVuSans-51"/>
      </defs>
      <g transform="translate(1023.35822 645.145638)scale(0.1 -0.1)">
       <use xlink:href="#DejaVuSans-51"/>
       <use x="63.623047" xlink:href="#DejaVuSans-48"/>
       <use x="127.246094" xlink:href="#DejaVuSans-48"/>
      </g>
     </g>
    </g>
    <g id="xtick_8">
     <g id="line2d_8">
      <g>
       <use style="stroke:#000000;stroke-width:0.8;" x="1168.218745" xlink:href="#mb8e445eb71" y="630.5472"/>
      </g>
     </g>
     <g id="text_8">
      <!-- 350 -->
      <g transform="translate(1158.674995 645.145638)scale(0.1 -0.1)">
       <use xlink:href="#DejaVuSans-51"/>
       <use x="63.623047" xlink:href="#DejaVuSans-53"/>
       <use x="127.246094" xlink:href="#DejaVuSans-48"/>
      </g>
     </g>
    </g>
   </g>
   <g id="matplotlib.axis_2">
    <g id="ytick_1">
     <g id="line2d_9">
      <defs>
       <path d="M 0 0 
L -3.5 0 
" id="m6f90c0af00" style="stroke:#000000;stroke-width:0.8;"/>
      </defs>
      <g>
       <use style="stroke:#000000;stroke-width:0.8;" x="172.8" xlink:href="#m6f90c0af00" y="569.393544"/>
      </g>
     </g>
     <g id="text_9">
      <!-- 60 -->
      <defs>
       <path d="M 33.015625 40.375 
Q 26.375 40.375 22.484375 35.828125 
Q 18.609375 31.296875 18.609375 23.390625 
Q 18.609375 15.53125 22.484375 10.953125 
Q 26.375 6.390625 33.015625 6.390625 
Q 39.65625 6.390625 43.53125 10.953125 
Q 47.40625 15.53125 47.40625 23.390625 
Q 47.40625 31.296875 43.53125 35.828125 
Q 39.65625 40.375 33.015625 40.375 
z
M 52.59375 71.296875 
L 52.59375 62.3125 
Q 48.875 64.0625 45.09375 64.984375 
Q 41.3125 65.921875 37.59375 65.921875 
Q 27.828125 65.921875 22.671875 59.328125 
Q 17.53125 52.734375 16.796875 39.40625 
Q 19.671875 43.65625 24.015625 45.921875 
Q 28.375 48.1875 33.59375 48.1875 
Q 44.578125 48.1875 50.953125 41.515625 
Q 57.328125 34.859375 57.328125 23.390625 
Q 57.328125 12.15625 50.6875 5.359375 
Q 44.046875 -1.421875 33.015625 -1.421875 
Q 20.359375 -1.421875 13.671875 8.265625 
Q 6.984375 17.96875 6.984375 36.375 
Q 6.984375 53.65625 15.1875 63.9375 
Q 23.390625 74.21875 37.203125 74.21875 
Q 40.921875 74.21875 44.703125 73.484375 
Q 48.484375 72.75 52.59375 71.296875 
z
" id="DejaVuSans-54"/>
      </defs>
      <g transform="translate(153.075 573.192762)scale(0.1 -0.1)">
       <use xlink:href="#DejaVuSans-54"/>
       <use x="63.623047" xlink:href="#DejaVuSans-48"/>
      </g>
     </g>
    </g>
    <g id="ytick_2">
     <g id="line2d_10">
      <g>
       <use style="stroke:#000000;stroke-width:0.8;" x="172.8" xlink:href="#m6f90c0af00" y="485.375256"/>
      </g>
     </g>
     <g id="text_10">
      <!-- 80 -->
      <defs>
       <path d="M 31.78125 34.625 
Q 24.75 34.625 20.71875 30.859375 
Q 16.703125 27.09375 16.703125 20.515625 
Q 16.703125 13.921875 20.71875 10.15625 
Q 24.75 6.390625 31.78125 6.390625 
Q 38.8125 6.390625 42.859375 10.171875 
Q 46.921875 13.96875 46.921875 20.515625 
Q 46.921875 27.09375 42.890625 30.859375 
Q 38.875 34.625 31.78125 34.625 
z
M 21.921875 38.8125 
Q 15.578125 40.375 12.03125 44.71875 
Q 8.5 49.078125 8.5 55.328125 
Q 8.5 64.0625 14.71875 69.140625 
Q 20.953125 74.21875 31.78125 74.21875 
Q 42.671875 74.21875 48.875 69.140625 
Q 55.078125 64.0625 55.078125 55.328125 
Q 55.078125 49.078125 51.53125 44.71875 
Q 48 40.375 41.703125 38.8125 
Q 48.828125 37.15625 52.796875 32.3125 
Q 56.78125 27.484375 56.78125 20.515625 
Q 56.78125 9.90625 50.3125 4.234375 
Q 43.84375 -1.421875 31.78125 -1.421875 
Q 19.734375 -1.421875 13.25 4.234375 
Q 6.78125 9.90625 6.78125 20.515625 
Q 6.78125 27.484375 10.78125 32.3125 
Q 14.796875 37.15625 21.921875 38.8125 
z
M 18.3125 54.390625 
Q 18.3125 48.734375 21.84375 45.5625 
Q 25.390625 42.390625 31.78125 42.390625 
Q 38.140625 42.390625 41.71875 45.5625 
Q 45.3125 48.734375 45.3125 54.390625 
Q 45.3125 60.0625 41.71875 63.234375 
Q 38.140625 66.40625 31.78125 66.40625 
Q 25.390625 66.40625 21.84375 63.234375 
Q 18.3125 60.0625 18.3125 54.390625 
z
" id="DejaVuSans-56"/>
      </defs>
      <g transform="translate(153.075 489.174475)scale(0.1 -0.1)">
       <use xlink:href="#DejaVuSans-56"/>
       <use x="63.623047" xlink:href="#DejaVuSans-48"/>
      </g>
     </g>
    </g>
    <g id="ytick_3">
     <g id="line2d_11">
      <g>
       <use style="stroke:#000000;stroke-width:0.8;" x="172.8" xlink:href="#m6f90c0af00" y="401.356968"/>
      </g>
     </g>
     <g id="text_11">
      <!-- 100 -->
      <g transform="translate(146.7125 405.156187)scale(0.1 -0.1)">
       <use xlink:href="#DejaVuSans-49"/>
       <use x="63.623047" xlink:href="#DejaVuSans-48"/>
       <use x="127.246094" xlink:href="#DejaVuSans-48"/>
      </g>
     </g>
    </g>
    <g id="ytick_4">
     <g id="line2d_12">
      <g>
       <use style="stroke:#000000;stroke-width:0.8;" x="172.8" xlink:href="#m6f90c0af00" y="317.33868"/>
      </g>
     </g>
     <g id="text_12">
      <!-- 120 -->
      <g transform="translate(146.7125 321.137899)scale(0.1 -0.1)">
       <use xlink:href="#DejaVuSans-49"/>
       <use x="63.623047" xlink:href="#DejaVuSans-50"/>
       <use x="127.246094" xlink:href="#DejaVuSans-48"/>
      </g>
     </g>
    </g>
    <g id="ytick_5">
     <g id="line2d_13">
      <g>
       <use style="stroke:#000000;stroke-width:0.8;" x="172.8" xlink:href="#m6f90c0af00" y="233.320392"/>
      </g>
     </g>
     <g id="text_13">
      <!-- 140 -->
      <defs>
       <path d="M 37.796875 64.3125 
L 12.890625 25.390625 
L 37.796875 25.390625 
z
M 35.203125 72.90625 
L 47.609375 72.90625 
L 47.609375 25.390625 
L 58.015625 25.390625 
L 58.015625 17.1875 
L 47.609375 17.1875 
L 47.609375 0 
L 37.796875 0 
L 37.796875 17.1875 
L 4.890625 17.1875 
L 4.890625 26.703125 
z
" id="DejaVuSans-52"/>
      </defs>
      <g transform="translate(146.7125 237.119611)scale(0.1 -0.1)">
       <use xlink:href="#DejaVuSans-49"/>
       <use x="63.623047" xlink:href="#DejaVuSans-52"/>
       <use x="127.246094" xlink:href="#DejaVuSans-48"/>
      </g>
     </g>
    </g>
    <g id="ytick_6">
     <g id="line2d_14">
      <g>
       <use style="stroke:#000000;stroke-width:0.8;" x="172.8" xlink:href="#m6f90c0af00" y="149.302104"/>
      </g>
     </g>
     <g id="text_14">
      <!-- 160 -->
      <g transform="translate(146.7125 153.101323)scale(0.1 -0.1)">
       <use xlink:href="#DejaVuSans-49"/>
       <use x="63.623047" xlink:href="#DejaVuSans-54"/>
       <use x="127.246094" xlink:href="#DejaVuSans-48"/>
      </g>
     </g>
    </g>
   </g>
   <g id="line2d_15">
    <path clip-path="url(#pf92d732033)" d="M 222.967616 262.393387 
L 224.489913 249.978564 
L 226.202498 372.728946 
L 228.972233 408.292243 
L 230.970248 372.50834 
L 231.868826 306.266809 
L 233.401695 305.049669 
L 235.378567 462.072083 
L 237.746585 477.638179 
L 239.459169 410.380903 
L 240.706607 406.361424 
L 242.979481 356.8541 
L 244.226919 294.714226 
L 245.157212 229.303209 
L 246.531508 298.376584 
L 248.540095 311.517274 
L 249.523245 248.152909 
L 250.516967 167.58459 
L 251.690404 136.559741 
L 252.557268 178.343489 
L 253.772991 109.8144 
L 254.639855 197.248065 
L 257.377876 266.7463 
L 260.401327 352.650875 
L 261.997625 362.100827 
L 264.101355 390.177755 
L 266.014798 329.707264 
L 267.875384 255.514128 
L 269.122822 286.893507 
L 270.645119 377.781215 
L 272.674848 457.145826 
L 274.884294 492.709122 
L 276.882309 471.963866 
L 279.260898 375.721758 
L 281.142627 412.432258 
L 284.092077 440.790822 
L 286.269808 494.616352 
L 287.834391 407.519991 
L 289.906407 416.336926 
L 292.284996 464.341505 
L 294.6213 517.085968 
L 296.661601 517.508951 
L 303.448509 503.963809 
L 305.499382 552.332443 
L 314.31602 551.482701 
L 316.684038 605.7504 
L 320.701211 572.804812 
L 323.069229 573.231572 
L 325.447818 525.42229 
L 331.896438 509.418806 
L 343.070523 504.505089 
L 345.332825 507.936439 
L 369.626151 511.876995 
L 371.729882 510.447973 
L 385.071125 504.419333 
L 387.195998 427.083491 
L 397.957794 431.696019 
L 400.294097 380.552315 
L 413.434482 466.394754 
L 415.717928 446.824097 
L 417.663085 502.553874 
L 419.883102 464.25494 
L 426.722868 462.970379 
L 437.674951 488.575952 
L 440.634973 462.263707 
L 442.019841 480.402897 
L 444.292715 442.811736 
L 450.709621 510.114192 
L 453.056495 553.70134 
L 457.08424 562.674507 
L 459.240828 538.72517 
L 461.122556 493.241523 
L 463.353145 491.66787 
L 465.478018 543.785328 
L 468.7869 458.690193 
L 470.002623 471.774185 
L 472.423499 444.040531 
L 487.953045 525.637831 
L 490.109632 518.10616 
L 492.350792 501.946748 
L 503.028015 448.057894 
L 509.836067 442.505574 
L 511.96094 451.709349 
L 514.159814 494.137908 
L 516.104971 500.638416 
L 527.014768 503.065813 
L 529.266499 507.349924 
L 535.567118 510.533431 
L 537.903421 497.105275 
L 539.890865 513.264687 
L 542.248311 505.154324 
L 544.404899 519.984976 
L 546.688345 502.633914 
L 548.68636 547.82022 
L 557.418426 550.073099 
L 564.004476 554.694522 
L 566.087063 516.279253 
L 568.391652 500.992705 
L 570.41081 467.73223 
L 577.039145 504.051903 
L 581.468607 508.578974 
L 583.572338 550.980195 
L 585.845212 333.990671 
L 586.659218 290.604909 
L 588.160372 280.344358 
L 590.221816 478.51305 
L 593.023266 479.572277 
L 594.534992 491.660051 
L 596.850152 457.186814 
L 598.816453 508.933498 
L 601.121041 494.535757 
L 603.1402 537.01505 
L 606.248223 460.811396 
L 607.548519 474.303946 
L 614.21914 275.200934 
L 619.367465 252.74091 
L 620.519759 253.6461 
L 622.83492 422.001219 
L 625.023222 542.236525 
L 627.972673 462.691983 
L 629.251825 469.274307 
L 631.588129 418.338489 
L 633.364142 525.806379 
L 636.599023 559.116797 
L 640.15105 585.688618 
L 642.39221 552.071753 
L 644.580512 533.359988 
L 647.329104 571.925151 
L 650.94456 559.568682 
L 652.900289 546.70024 
L 655.278879 550.98436 
L 659.158622 576.493573 
L 661.66407 572.510484 
L 663.947516 520.247753 
L 665.998388 517.485677 
L 668.429835 504.452008 
L 670.448993 511.414826 
L 679.159916 502.993953 
L 681.390504 503.580469 
L 687.817981 548.880381 
L 696.211759 542.733434 
L 703.009239 518.626921 
L 709.60586 362.146866 
L 716.773343 303.496727 
L 718.137067 357.533419 
L 720.906803 423.254391 
L 722.4291 493.53687 
L 724.786546 459.993001 
L 726.752847 531.989488 
L 729.691726 568.860139 
L 733.508041 573.62872 
L 735.558913 554.112125 
L 737.905788 501.668577 
L 744.22755 510.115776 
L 746.447567 547.911945 
L 750.295596 564.342188 
L 761.733968 561.329767 
L 763.890556 517.997258 
L 798.237386 509.180323 
L 800.415117 521.503861 
L 815.891805 513.056662 
L 822.37214 524.757903 
L 841.823715 482.594351 
L 848.557766 486.455478 
L 850.682639 492.08563 
L 853.293802 518.179232 
L 859.805851 527.863247 
L 875.441112 504.073437 
L 884.247178 519.738555 
L 886.678625 514.150554 
L 888.88807 519.06595 
L 895.569264 521.055653 
L 902.48303 515.884178 
L 904.58676 524.513923 
L 919.957733 533.314529 
L 933.18269 474.66439 
L 935.21242 475.537254 
L 937.569866 447.962021 
L 952.539122 516.929253 
L 954.864854 491.862765 
L 961.250045 485.900552 
L 972.159842 485.00361 
L 974.46443 498.437758 
L 976.568161 518.249415 
L 987.900818 507.731967 
L 989.983405 523.503856 
L 996.8866 513.476721 
L 999.022044 526.636946 
L 1005.78781 416.036793 
L 1012.120143 430.203477 
L 1014.583305 465.293268 
L 1027.596831 469.050899 
L 1044.902391 459.906792 
L 1047.14355 413.829535 
L 1055.695901 500.373096 
L 1073.128318 504.943188 
L 1075.475193 457.212838 
L 1082.145815 456.620149 
L 1117.137507 457.485202 
L 1123.850415 506.789205 
L 1130.394179 529.238861 
L 1132.899626 528.808274 
L 1141.610549 523.942057 
L 1143.671993 509.261274 
L 1150.416616 510.541603 
L 1152.805776 512.758708 
L 1154.909507 520.426687 
L 1157.235238 457.445773 
L 1181.306563 452.918702 
L 1183.325721 457.16943 
L 1185.757168 521.805494 
L 1185.757168 521.805494 
" style="fill:none;stroke:#1f77b4;stroke-linecap:square;stroke-width:1.5;"/>
   </g>
   <g id="line2d_16">
    <path clip-path="url(#pf92d732033)" d="M 221.498182 513.070122 
L 222.121908 370.161505 
L 222.671632 290.052292 
L 223.136783 250.946637 
L 223.496219 236.170051 
L 223.739366 232.822569 
L 223.792224 232.740268 
L 223.834511 232.831822 
L 223.950798 233.78044 
L 224.151659 237.682083 
L 224.468808 249.022977 
L 224.933959 274.878296 
L 225.695116 331.772119 
L 226.424558 381.878498 
L 226.995426 399.438631 
L 227.48172 408.304441 
L 227.862299 411.821595 
L 228.12659 412.695247 
L 228.253449 412.697297 
L 228.264021 412.685851 
L 228.412023 412.344848 
L 228.655171 411.091494 
L 228.972319 408.292891 
L 229.067464 408.929679 
L 229.331755 409.822293 
L 229.437471 409.777377 
L 229.574902 409.33724 
L 229.786334 407.741609 
L 230.071768 403.618 
L 230.431203 394.75746 
L 230.854068 378.299583 
L 231.139502 359.434425 
L 231.995804 301.108209 
L 232.36581 291.594512 
L 232.608958 289.637982 
L 232.651244 289.63266 
L 232.682959 289.692592 
L 232.799247 290.375813 
L 233.000108 293.235398 
L 233.296113 301.181099 
L 233.549832 313.694084 
L 234.162986 358.679074 
L 235.643014 471.99941 
L 236.118737 484.151001 
L 236.488743 488.847707 
L 236.731891 489.817205 
L 236.827035 489.760375 
L 236.964466 489.259006 
L 237.18647 487.435502 
L 237.514191 482.568334 
L 237.820768 474.785942 
L 239.617944 408.842864 
L 239.956236 406.985181 
L 240.231098 406.464485 
L 240.50596 406.382714 
L 240.717393 406.27245 
L 241.150829 401.74374 
L 241.647695 394.018617 
L 242.207991 381.562273 
L 242.831717 362.325905 
L 243.487158 334.895429 
L 244.237743 293.829234 
L 245.104616 231.730913 
L 245.178618 229.280842 
L 245.252619 229.607842 
L 245.39005 231.776846 
L 245.633197 239.951494 
L 246.024347 261.834458 
L 246.859506 309.968684 
L 247.335229 321.369705 
L 247.652377 324.713494 
L 247.768665 324.972861 
L 247.810952 324.930676 
L 247.916668 324.496474 
L 248.096386 322.638932 
L 248.360676 317.186878 
L 248.635538 306.69122 
L 249.238121 269.181503 
L 250.020421 206.019221 
L 250.72872 155.931834 
L 251.162156 139.840075 
L 251.44759 135.652759 
L 251.521591 135.477085 
L 251.57445 135.591359 
L 251.690737 136.574269 
L 252.55761 178.329698 
L 252.642183 174.48308 
L 253.033334 149.034181 
L 253.635916 112.705016 
L 253.773347 109.834506 
L 253.79449 111.060523 
L 254.132782 138.079963 
L 255.15823 228.333616 
L 255.665668 247.206095 
L 256.130819 257.069857 
L 256.564256 261.977017 
L 257.039979 264.904212 
L 257.399414 267.317361 
L 259.429166 324.103581 
L 260.401755 352.65778 
L 260.845763 358.045306 
L 261.236913 360.463148 
L 261.60692 361.515021 
L 262.019213 362.469691 
L 263.615528 388.055389 
L 263.943249 390.011567 
L 264.091251 390.183944 
L 264.101823 390.170101 
L 264.524688 381.417411 
L 265.106127 364.295583 
L 265.973 331.427503 
L 266.417008 308.701688 
L 267.283881 269.748988 
L 267.749033 257.353432 
L 267.875892 255.515807 
L 267.939322 255.804946 
L 268.129611 257.60046 
L 268.415045 262.770401 
L 268.816767 274.639473 
L 269.303061 295.9522 
L 270.148791 346.204287 
L 271.089666 399.161081 
L 272.03054 436.962033 
L 272.886842 462.987909 
L 273.605712 479.07746 
L 274.197723 487.848152 
L 274.652303 491.719934 
L 274.969451 492.882964 
L 275.138597 492.955471 
L 275.149169 492.94791 
L 275.297172 492.691989 
L 275.519176 491.780141 
L 275.836325 489.368136 
L 276.238046 484.415433 
L 276.734913 475.308346 
L 276.999203 467.179423 
L 279.26153 375.72368 
L 279.282674 375.793881 
L 279.472963 376.926227 
L 279.768968 380.315121 
L 280.202405 388.201698 
L 280.88956 405.38725 
L 281.333569 414.569069 
L 282.147584 422.077991 
L 283.638182 435.214067 
L 284.103334 441.26075 
L 285.181639 481.707772 
L 285.667934 492.61291 
L 285.963939 495.445607 
L 286.059084 495.625374 
L 286.101371 495.581966 
L 286.207087 495.127588 
L 286.281088 494.114386 
L 286.894242 461.726349 
L 287.972548 404.681017 
L 288.331983 400.192847 
L 288.564559 399.304029 
L 288.659703 399.350859 
L 288.670275 399.369963 
L 288.818278 399.916552 
L 289.061425 401.863759 
L 289.431432 406.959475 
L 290.953746 434.452633 
L 292.074338 459.331817 
L 294.622099 517.092805 
L 295.066107 519.945878 
L 295.404399 520.942766 
L 295.636975 521.096375 
L 295.816692 520.942532 
L 296.05984 520.385552 
L 296.408703 518.9551 
L 297.582153 512.398248 
L 298.86132 503.271715 
L 300.003055 495.806017 
L 300.647924 492.893715 
L 301.091932 491.747596 
L 301.398509 491.457921 
L 301.609942 491.527383 
L 301.842517 491.880044 
L 302.138523 492.780918 
L 302.50853 494.682959 
L 302.952538 498.219422 
L 303.449404 503.983184 
L 304.929431 538.452906 
L 305.722303 555.091084 
L 306.293171 560.334212 
L 306.768894 562.904656 
L 307.149472 563.932473 
L 307.424334 564.171427 
L 307.635767 564.096491 
L 307.889486 563.737529 
L 308.248921 562.784757 
L 308.745787 560.761244 
L 309.485801 556.69542 
L 311.568411 544.742327 
L 312.096992 543.06921 
L 312.456427 542.549657 
L 312.689003 542.529524 
L 312.911007 542.76825 
L 313.185869 543.444771 
L 313.534733 544.969311 
L 313.957597 547.92521 
L 314.338176 552.092964 
L 315.744202 587.720105 
L 316.621646 604.754075 
L 316.790792 605.7504 
L 317.562521 605.657107 
L 317.921956 603.597402 
L 318.429394 599.233663 
L 319.222266 590.212329 
L 320.702293 572.808205 
L 320.734008 572.907869 
L 321.674882 575.516404 
L 322.023746 575.933489 
L 322.24575 575.921853 
L 322.457182 575.664743 
L 322.721473 574.949909 
L 323.049193 573.357041 
L 323.15491 572.078867 
L 323.799779 561.602826 
L 324.698367 542.970135 
L 325.776672 521.10158 
L 326.569544 512.678382 
L 327.277843 507.354742 
L 327.901568 504.220694 
L 328.430149 502.597414 
L 328.853014 501.921368 
L 329.191306 501.747766 
L 329.487312 501.844982 
L 329.825604 502.221175 
L 330.25904 503.08284 
L 330.808765 504.722004 
L 331.517063 507.593044 
L 331.897642 509.416589 
L 331.982215 509.261585 
L 333.419956 506.869922 
L 334.720265 505.117851 
L 335.904287 503.879272 
L 336.982593 503.060186 
L 337.976325 502.576102 
L 338.906628 502.366327 
L 339.794644 502.392458 
L 340.672089 502.641698 
L 341.570677 503.133476 
L 342.511551 503.911937 
L 343.357281 504.891376 
L 344.826737 507.099299 
L 346.08476 508.925712 
L 347.765648 510.877123 
L 349.414821 512.457465 
L 351.021708 513.696087 
L 352.607452 514.643327 
L 354.182623 515.329562 
L 355.768367 515.779883 
L 357.375254 516.006364 
L 359.034998 516.014947 
L 360.768745 515.799014 
L 362.608207 515.341622 
L 364.5851 514.615964 
L 366.752283 513.577662 
L 369.194328 512.152859 
L 371.731518 510.453029 
L 371.784376 510.620696 
L 372.302385 512.68579 
L 372.968398 516.336281 
L 373.856414 522.564881 
L 375.19901 533.781386 
L 377.503624 553.011105 
L 378.444498 558.988207 
L 379.131654 562.081489 
L 379.649663 563.525174 
L 380.030242 564.027115 
L 380.294532 564.070853 
L 380.53768 563.87583 
L 380.833685 563.317035 
L 381.203692 562.092477 
L 381.658272 559.731919 
L 382.186853 555.706575 
L 382.789435 549.294274 
L 383.466019 539.571027 
L 384.216605 525.371495 
L 385.03062 505.534427 
L 385.379483 492.987795 
L 387.37752 423.00057 
L 388.064675 410.607255 
L 388.667258 403.384241 
L 389.185267 399.583002 
L 389.597561 397.972474 
L 389.904138 397.506238 
L 390.11557 397.517607 
L 390.337574 397.800693 
L 390.644151 398.612326 
L 391.067016 400.444669 
L 391.637884 404.008317 
L 392.451899 410.64517 
L 395.263951 434.817376 
L 395.84539 437.56863 
L 396.247112 438.570605 
L 396.511402 438.763392 
L 396.701691 438.650798 
L 396.934267 438.207103 
L 397.240844 437.071678 
L 397.621423 434.719054 
L 397.980858 431.2044 
L 400.655478 376.406965 
L 401.247489 371.50183 
L 401.733784 369.104864 
L 402.114362 368.179611 
L 402.378653 367.997605 
L 402.590086 368.110134 
L 402.854376 368.55871 
L 403.20324 369.646733 
L 403.668391 371.910502 
L 404.260402 375.996069 
L 405.021559 382.934127 
L 406.025863 394.326788 
L 407.56932 414.736694 
L 409.895077 445.177325 
L 410.941668 456.001676 
L 411.723968 461.985175 
L 412.315979 465.002536 
L 412.759987 466.278825 
L 413.066564 466.617483 
L 413.277996 466.576086 
L 413.436571 466.346251 
L 414.123726 453.005751 
L 414.631164 446.911532 
L 414.990599 444.798741 
L 415.202032 444.482971 
L 415.31832 444.616752 
L 415.498037 445.267881 
L 415.720041 446.877354 
L 416.438912 467.863017 
L 417.612362 501.488864 
L 417.760365 502.656817 
L 417.770936 502.655346 
L 417.876653 502.507227 
L 418.045798 501.781277 
L 418.310089 499.514629 
L 418.690668 494.058916 
L 419.219249 482.851106 
L 420.234124 460.408661 
L 420.963566 454.119002 
L 421.597864 450.389888 
L 422.137017 448.388112 
L 422.581025 447.484029 
L 422.919317 447.216082 
L 423.194179 447.250897 
L 423.490184 447.528211 
L 423.870763 448.228881 
L 424.357057 449.644901 
L 424.970212 452.176202 
L 425.752512 456.434884 
L 427.507401 466.453325 
L 429.526581 476.356853 
L 431.492903 485.592024 
L 432.624067 489.902007 
L 433.480368 492.36995 
L 434.156952 493.709256 
L 434.685533 494.320446 
L 435.108398 494.504618 
L 435.478405 494.425804 
L 435.858983 494.095754 
L 436.29242 493.393231 
L 436.789286 492.132268 
L 437.360154 490.040832 
L 437.698446 488.132318 
L 438.586462 473.483224 
L 439.241903 465.926492 
L 439.728197 462.538975 
L 440.066489 461.455708 
L 440.26735 461.349423 
L 440.425925 461.56335 
L 440.637357 462.297674 
L 442.011668 480.335967 
L 442.02224 480.398944 
L 442.096241 480.226094 
L 442.297102 479.276909 
L 442.603679 476.576212 
L 443.037116 470.512635 
L 443.65027 458.409087 
L 444.506571 441.582718 
L 444.88715 440.248779 
L 445.162012 439.933789 
L 445.341729 440.008347 
L 445.563733 440.394709 
L 445.87031 441.440191 
L 446.282604 443.727212 
L 446.821757 448.114867 
L 447.508912 455.728006 
L 448.386357 468.169501 
L 449.559807 488.270269 
L 451.378126 523.661778 
L 452.784152 549.42971 
L 453.386735 557.411509 
L 454.052747 563.181515 
L 454.613043 566.313437 
L 455.057051 567.713266 
L 455.384771 568.14887 
L 455.617347 568.156356 
L 455.849923 567.917518 
L 456.1565 567.232428 
L 456.558221 565.710157 
L 457.055088 562.873061 
L 457.995962 555.746913 
L 458.619688 548.389361 
L 459.264557 538.157145 
L 461.36831 490.270269 
L 461.82289 486.593499 
L 462.15061 485.411559 
L 462.340899 485.29132 
L 462.488902 485.485784 
L 462.710906 486.250595 
L 463.017483 488.24165 
L 463.366347 491.952925 
L 464.148647 511.332617 
L 465.4701 543.637015 
L 465.480671 543.749621 
L 465.522958 543.157432 
L 465.914108 535.802924 
L 466.506119 519.782383 
L 468.483012 462.755093 
L 468.789589 458.71488 
L 468.810733 458.910837 
L 469.497888 466.392309 
L 470.089899 471.921198 
L 470.248473 471.937634 
L 470.407048 471.638168 
L 470.650195 470.585536 
L 470.988487 467.979426 
L 471.443067 462.522822 
L 472.024506 452.580725 
L 472.627089 442.786144 
L 473.229671 439.942332 
L 473.737109 438.502579 
L 474.138831 437.942891 
L 474.445408 437.841953 
L 474.730842 437.989909 
L 475.069134 438.453444 
L 475.491998 439.448575 
L 476.031151 441.339458 
L 476.707735 444.60333 
L 477.542893 449.816214 
L 478.600056 457.926575 
L 480.048368 470.920599 
L 484.245302 509.610374 
L 485.33418 517.152057 
L 486.179909 521.588848 
L 486.845922 524.02286 
L 487.363931 525.182027 
L 487.755081 525.592051 
L 487.977085 525.593266 
L 488.537381 524.312104 
L 489.18225 522.245072 
L 489.911692 519.108556 
L 490.577705 515.286499 
L 491.603152 508.007601 
L 493.516616 494.063149 
L 495.683799 480.510161 
L 497.597262 469.889993 
L 499.299294 461.638705 
L 500.821608 455.307476 
L 502.185347 450.544976 
L 504.912826 442.288636 
L 505.737412 440.62753 
L 506.424568 439.704618 
L 506.995435 439.282323 
L 507.48173 439.184432 
L 507.93631 439.321783 
L 508.412033 439.713018 
L 508.940614 440.457791 
L 509.543196 441.723623 
L 509.839202 442.503579 
L 509.95549 442.454906 
L 510.198637 442.520543 
L 510.452356 442.850544 
L 510.769505 443.676808 
L 511.160655 445.398099 
L 511.615235 448.488827 
L 512.016956 452.680072 
L 512.947259 470.941058 
L 514.184139 494.374192 
L 514.723292 498.502915 
L 515.1673 500.415889 
L 515.505592 501.055608 
L 515.738168 501.117429 
L 515.9496 500.923964 
L 516.108175 500.645938 
L 516.171604 500.792936 
L 516.964476 502.331934 
L 517.704489 503.314022 
L 518.402217 503.89308 
L 519.089372 504.183838 
L 519.797671 504.243932 
L 520.601114 504.083121 
L 521.647705 503.63005 
L 524.491471 502.280064 
L 525.294915 502.204322 
L 525.992642 502.359359 
L 526.648083 502.738868 
L 527.092091 503.219089 
L 532.177042 513.054997 
L 532.811339 513.652368 
L 533.308205 513.841897 
L 533.741642 513.775009 
L 534.164507 513.475988 
L 534.629658 512.8523 
L 535.147668 511.75744 
L 535.581104 510.400618 
L 536.553694 502.234146 
L 537.166848 498.745089 
L 537.589713 497.412328 
L 537.864575 497.10904 
L 537.906861 497.125375 
L 537.917433 497.187571 
L 538.446014 500.984511 
L 539.894326 513.26213 
L 540.031757 513.105734 
L 540.327763 512.447829 
L 540.792914 510.770178 
L 542.241227 505.168063 
L 542.272942 505.305738 
L 542.960097 510.273899 
L 544.165262 518.88906 
L 544.408409 519.95669 
L 544.429553 519.78454 
L 545.06385 513.637869 
L 546.025868 504.668075 
L 546.417018 502.828352 
L 546.62845 502.588398 
L 546.69188 502.675432 
L 547.14646 509.374553 
L 547.749042 521.941395 
L 548.563057 544.075519 
L 548.911921 551.355846 
L 549.694221 561.446298 
L 550.391948 567.81609 
L 551.005102 571.572128 
L 551.523112 573.533499 
L 551.945977 574.387215 
L 552.273697 574.624827 
L 552.537988 574.566117 
L 552.833993 574.252975 
L 553.225143 573.469462 
L 553.732581 571.892254 
L 554.388022 569.062187 
L 555.276038 564.145134 
L 556.756065 554.47413 
L 557.422078 550.101969 
L 557.464364 550.435796 
L 558.87039 560.639262 
L 559.747835 565.525705 
L 560.403275 568.053363 
L 560.88957 569.164261 
L 561.238433 569.5042 
L 561.502724 569.48463 
L 561.767015 569.210417 
L 562.094735 568.495379 
L 562.496457 567.015023 
L 562.97218 564.337088 
L 563.532476 559.789575 
L 564.050485 553.775228 
L 565.858233 519.838075 
L 566.302241 514.442544 
L 566.999968 509.754401 
L 568.384851 501.048826 
L 568.659713 497.114452 
L 569.801448 478.322233 
L 570.604891 466.247369 
L 571.091186 463.644744 
L 571.471765 462.64383 
L 571.736055 462.44054 
L 571.936916 462.537862 
L 572.190635 462.953007 
L 572.539499 464.018445 
L 573.00465 466.238967 
L 573.617804 470.350583 
L 574.452962 477.597346 
L 575.880132 492.287537 
L 577.04301 504.034032 
L 577.074725 503.887567 
L 578.142459 499.47634 
L 578.723898 497.906798 
L 579.12562 497.370377 
L 579.400482 497.320598 
L 579.643629 497.520754 
L 579.929063 498.078912 
L 580.288498 499.330404 
L 580.721935 501.746779 
L 581.218801 505.887933 
L 581.493663 509.704635 
L 582.297107 540.696801 
L 582.77283 551.737006 
L 583.068835 554.663036 
L 583.16398 554.853583 
L 583.216838 554.790217 
L 583.333126 554.208006 
L 583.523415 551.872092 
L 583.597416 549.148586 
L 584.199999 496.559794 
L 586.166321 314.140235 
L 586.758332 286.882509 
L 587.20234 275.024818 
L 587.487774 271.909899 
L 587.582918 271.715831 
L 587.625205 271.770032 
L 587.741493 272.374202 
L 587.931782 274.843733 
L 588.174929 281.227389 
L 588.661224 317.849328 
L 589.454096 397.200795 
L 590.363255 483.185001 
L 590.775548 492.273908 
L 591.103269 495.406067 
L 591.314701 495.868286 
L 591.420417 495.71378 
L 591.600135 494.946922 
L 591.906712 492.470469 
L 592.509295 485.317834 
L 593.027304 479.613776 
L 593.048447 479.831174 
L 594.084466 489.371509 
L 594.517903 491.606538 
L 594.528475 491.639988 
L 594.560189 491.391048 
L 594.983054 485.57505 
L 595.99793 467.342734 
L 596.589941 459.121958 
L 596.84366 457.218876 
L 596.864803 457.47166 
L 597.425099 470.673524 
L 598.894555 508.983831 
L 598.957985 508.9539 
L 599.105987 508.65731 
L 599.349135 507.576681 
L 599.761428 504.539336 
L 600.987736 494.922267 
L 601.114596 494.549022 
L 601.135739 494.798762 
L 601.822895 509.150465 
L 603.144347 536.959654 
L 603.524926 530.308055 
L 604.095793 515.867508 
L 606.030401 463.666935 
L 606.252405 460.831619 
L 606.305263 461.104531 
L 606.654126 463.642092 
L 607.172136 469.286165 
L 607.552714 474.299831 
L 607.658431 474.103973 
L 607.869863 473.192195 
L 608.17644 470.692817 
L 608.588733 465.285776 
L 609.127886 455.028517 
L 609.825613 437.174948 
L 610.755916 407.135346 
L 612.183085 352.844982 
L 614.255123 274.774663 
L 615.090281 266.267337 
L 615.851438 260.624293 
L 616.549165 256.978457 
L 617.183463 254.748901 
L 617.75433 253.490508 
L 618.251197 252.878968 
L 618.705777 252.645857 
L 619.160356 252.664629 
L 619.361217 252.738073 
L 619.371789 252.681091 
L 619.741796 249.077094 
L 619.953228 248.5286 
L 620.048373 248.685928 
L 620.206947 249.548877 
L 620.439523 252.27519 
L 620.587525 256.225742 
L 621.031534 278.420367 
L 621.665831 322.635589 
L 624.012731 498.10463 
L 624.752745 532.957045 
L 625.027607 542.22029 
L 625.091037 541.906013 
L 625.291898 539.982591 
L 625.609047 534.423438 
L 626.095341 521.340451 
L 627.215933 482.890369 
L 627.892517 464.253774 
L 627.97709 462.710076 
L 628.051091 463.033916 
L 628.569101 465.978231 
L 629.192827 469.112015 
L 629.245685 469.259 
L 629.256256 469.187137 
L 629.721408 457.759916 
L 631.127434 420.93405 
L 631.423439 418.306754 
L 631.508012 418.176537 
L 631.550299 418.226392 
L 631.592585 418.525689 
L 632.14231 446.320604 
L 633.104327 508.404198 
L 633.58005 533.104943 
L 634.16149 547.882381 
L 634.668927 555.774701 
L 635.102364 559.51894 
L 635.451228 560.921711 
L 635.704947 561.217183 
L 635.884664 561.125586 
L 636.127811 560.682542 
L 636.529533 559.386149 
L 636.592963 559.140617 
L 636.624678 559.459481 
L 637.956702 575.761676 
L 638.696716 582.319909 
L 639.214725 585.200893 
L 639.574161 586.176656 
L 639.796165 586.306039 
L 639.965311 586.142967 
L 640.1556 585.635664 
L 640.87447 575.959543 
L 643.369373 540.338604 
L 643.971956 535.568296 
L 644.394821 533.720855 
L 644.574538 533.367037 
L 644.595682 533.461322 
L 644.997403 536.92931 
L 645.578842 544.138048 
L 646.562004 559.631157 
L 647.439448 572.319491 
L 647.809455 573.141677 
L 648.073746 573.289852 
L 648.29575 573.155698 
L 648.581183 572.665453 
L 648.972334 571.47518 
L 649.500915 569.067409 
L 650.2515 564.488904 
L 651.572953 554.79366 
L 652.556114 548.36752 
L 653.021265 546.47087 
L 653.359557 546.126407 
L 653.623848 546.145242 
L 653.89871 546.414237 
L 654.258145 547.120502 
L 654.733868 548.610174 
L 655.325879 551.25776 
L 656.192752 557.004358 
L 658.740513 574.609543 
L 659.596815 578.38501 
L 659.998536 579.360442 
L 660.262827 579.535393 
L 660.453116 579.404892 
L 660.685692 578.929099 
L 660.992269 577.726263 
L 661.372847 575.234391 
L 661.700568 571.752834 
L 662.630871 549.958349 
L 663.920609 520.735532 
L 664.121469 519.086385 
L 664.533763 517.327007 
L 664.861483 516.732928 
L 665.125774 516.636577 
L 665.400636 516.787519 
L 665.95036 517.429732 
L 665.992647 517.479115 
L 666.01379 517.402439 
L 667.039237 511.223671 
L 668.001255 505.979458 
L 668.434692 504.453722 
L 668.455835 504.462229 
L 668.709554 504.693186 
L 669.047846 505.348915 
L 669.502426 506.787431 
L 670.105008 509.517964 
L 670.644161 511.761268 
L 671.2256 512.503184 
L 671.74361 512.827955 
L 672.229904 512.875832 
L 672.737342 512.69124 
L 673.318782 512.225551 
L 674.037652 511.34281 
L 675.010241 509.759384 
L 678.615165 503.519639 
L 679.312892 502.889583 
L 679.88376 502.664028 
L 680.370054 502.699883 
L 680.845777 502.965035 
L 681.342644 503.512162 
L 681.490646 503.903041 
L 682.1038 506.334406 
L 682.875529 510.387806 
L 683.85869 516.841615 
L 685.222429 527.420465 
L 688.013338 549.411389 
L 688.774494 551.088829 
L 689.451078 552.08177 
L 690.053661 552.596114 
L 690.592814 552.778424 
L 691.110823 552.720648 
L 691.660548 552.424485 
L 692.273702 551.827693 
L 692.992572 550.798479 
L 693.848874 549.154709 
L 694.863749 546.695606 
L 696.111201 543.051948 
L 696.216917 542.739472 
L 696.290919 542.824423 
L 696.988646 543.445414 
L 697.527798 543.649374 
L 697.982378 543.588123 
L 698.415815 543.297703 
L 698.880966 542.69978 
L 699.398976 541.641384 
L 699.969843 539.937328 
L 700.604141 537.302865 
L 701.301868 533.396747 
L 702.063025 527.789988 
L 702.87704 520.063494 
L 703.130759 516.231789 
L 704.452212 487.745449 
L 706.39739 440.439322 
L 712.486645 290.012854 
L 713.205516 279.457304 
L 713.75524 274.247729 
L 714.156962 272.19835 
L 714.421252 271.722804 
L 714.569255 271.773738 
L 714.748973 272.152101 
L 715.002692 273.296161 
L 715.340983 275.978006 
L 715.763848 281.285489 
L 716.271286 290.699211 
L 716.810439 304.987327 
L 718.406754 364.758587 
L 719.326485 385.285265 
L 720.53165 412.39061 
L 720.98623 427.34345 
L 722.265396 487.687578 
L 722.540259 493.935782 
L 722.603688 493.962576 
L 722.645975 493.903898 
L 722.783406 493.318378 
L 723.015982 491.117743 
L 723.39656 485.054953 
L 724.781443 460.035074 
L 724.802586 460.382832 
L 725.341739 476.345259 
L 726.208612 509.673789 
L 727.001484 537.841564 
L 727.720354 551.411356 
L 728.386366 560.099596 
L 728.988949 565.305034 
L 729.538673 568.280682 
L 729.834679 569.946777 
L 730.532406 574.268443 
L 731.103273 576.573013 
L 731.557853 577.600716 
L 731.885573 577.891139 
L 732.139292 577.853947 
L 732.414155 577.553294 
L 732.752447 576.808219 
L 733.175311 575.288757 
L 733.809609 572.013176 
L 734.359333 568.029556 
L 734.983059 561.742939 
L 735.617357 553.047648 
L 736.526516 534.260412 
L 738.344835 495.790751 
L 739.021419 488.945184 
L 739.602858 485.104091 
L 740.06801 483.321168 
L 740.416873 482.703868 
L 740.660021 482.626022 
L 740.882025 482.800837 
L 741.167459 483.361549 
L 741.548037 484.678572 
L 742.034332 487.2685 
L 742.636914 491.810308 
L 743.366356 499.136318 
L 744.233229 510.214664 
L 746.611845 549.736644 
L 747.36243 556.591375 
L 748.028442 560.79093 
L 748.609881 563.159209 
L 749.096176 564.303598 
L 749.487326 564.722895 
L 749.793903 564.765288 
L 750.10048 564.575602 
L 750.290769 564.348972 
L 750.322484 564.505307 
L 754.085982 586.692204 
L 755.026857 590.643794 
L 755.745727 592.801918 
L 756.306023 593.860744 
L 756.728888 594.251193 
L 757.06718 594.287776 
L 757.384328 594.084505 
L 757.743764 593.559764 
L 758.1772 592.485588 
L 758.684638 590.573435 
L 759.266077 587.450195 
L 759.921518 582.641523 
L 760.65096 575.552751 
L 761.454403 565.447373 
L 762.067558 555.214996 
L 763.537013 525.678333 
L 764.541317 506.521277 
L 766.053059 482.585736 
L 767.4908 463.204184 
L 768.85454 447.704953 
L 770.144278 435.49277 
L 771.349443 426.115992 
L 772.470035 419.067878 
L 773.495482 413.956128 
L 774.436357 410.334436 
L 775.282086 407.909724 
L 776.032672 406.386571 
L 776.688112 405.51965 
L 777.25898 405.102776 
L 777.776989 404.98728 
L 778.273856 405.103536 
L 778.802437 405.463009 
L 779.405019 406.158384 
L 780.102747 407.327305 
L 780.90619 409.131879 
L 781.836493 411.795916 
L 782.914798 415.595225 
L 784.16225 420.850346 
L 785.610562 427.963434 
L 787.333737 437.604568 
L 789.469205 450.89757 
L 792.640692 472.220294 
L 797.281634 503.27073 
L 799.46996 516.375873 
L 800.70684 522.693666 
L 801.594856 525.711869 
L 802.408871 527.732769 
L 803.138313 528.989678 
L 803.793754 529.710321 
L 804.396336 530.060107 
L 804.967204 530.138397 
L 805.548643 529.987348 
L 806.182941 529.583114 
L 806.922954 528.833498 
L 807.821542 527.584331 
L 808.963278 525.58401 
L 810.644166 522.133085 
L 813.466789 516.345827 
L 814.650811 514.433715 
L 815.570542 513.33977 
L 815.898262 513.067913 
L 815.929977 513.123236 
L 818.520025 517.870371 
L 821.913516 524.007266 
L 822.473812 524.73672 
L 823.150396 524.464816 
L 823.890409 523.919296 
L 824.725568 523.015652 
L 825.687585 521.63089 
L 826.808177 519.607483 
L 828.140202 516.715884 
L 829.778803 512.591233 
L 832.030559 506.262995 
L 837.104938 491.831736 
L 838.796398 487.783591 
L 840.160137 485.064713 
L 841.301873 483.257364 
L 842.020743 482.456568 
L 842.908759 481.998223 
L 843.712203 481.824698 
L 844.473359 481.885026 
L 845.223945 482.170664 
L 845.995673 482.710782 
L 846.809688 483.565079 
L 847.676561 484.812468 
L 849.822601 488.55343 
L 850.351182 490.486398 
L 850.79519 492.913207 
L 851.566919 499.568884 
L 852.708654 511.579839 
L 853.586099 520.139111 
L 854.431828 524.835965 
L 855.192985 527.900303 
L 855.869569 529.770794 
L 856.451009 530.784072 
L 856.947875 531.244998 
L 857.381311 531.361912 
L 857.793605 531.241584 
L 858.248185 530.863731 
L 858.787337 530.106459 
L 859.442778 528.775643 
L 859.971359 527.809616 
L 860.732516 527.417577 
L 861.588817 526.71265 
L 862.571978 525.599885 
L 863.734857 523.930605 
L 865.172598 521.454992 
L 867.202349 517.4701 
L 871.335854 509.276331 
L 872.837024 506.841809 
L 874.031618 505.302995 
L 875.02535 504.362239 
L 875.437644 504.075573 
L 875.458787 504.128949 
L 878.302553 512.695606 
L 879.655721 516.07395 
L 880.702312 518.134232 
L 881.558613 519.363073 
L 882.25634 520.008112 
L 882.848351 520.274202 
L 883.376933 520.273675 
L 883.88437 520.045979 
L 884.264949 519.675634 
L 885.300968 516.419786 
L 885.988124 514.912624 
L 886.495561 514.268079 
L 886.74928 514.200251 
L 887.151002 514.652478 
L 887.669011 515.611933 
L 888.356167 517.398786 
L 889.201897 519.547897 
L 890.111057 520.674248 
L 890.967358 521.396018 
L 891.791944 521.811919 
L 892.616531 521.984089 
L 893.483404 521.934926 
L 894.43485 521.64985 
L 895.534299 521.077401 
L 895.661159 520.86886 
L 898.420352 515.490165 
L 899.276654 514.360862 
L 899.932094 513.834992 
L 900.460675 513.674738 
L 900.925827 513.758428 
L 901.390978 514.077211 
L 901.887845 514.704128 
L 902.437569 515.776522 
L 902.723003 516.725076 
L 903.833023 521.129799 
L 905.344765 527.157458 
L 906.697933 531.273599 
L 907.955956 534.416615 
L 909.108263 536.726579 
L 910.165425 538.374444 
L 911.138015 539.497594 
L 912.026031 540.198469 
L 912.850618 540.575156 
L 913.632918 540.691255 
L 914.404646 540.578104 
L 915.186947 540.235087 
L 916.022105 539.618029 
L 916.920693 538.668212 
L 917.903854 537.293899 
L 918.982159 535.389715 
L 919.975892 533.216463 
L 922.460223 519.178839 
L 926.340009 497.333309 
L 928.073755 488.872943 
L 929.437494 483.25853 
L 930.568658 479.489195 
L 931.509533 477.075137 
L 932.291833 475.628687 
L 932.947273 474.844944 
L 933.179849 474.666242 
L 933.200992 474.745865 
L 933.740145 476.622555 
L 934.120723 477.280157 
L 934.385014 477.376672 
L 934.607018 477.213226 
L 934.88188 476.683348 
L 935.220172 475.489823 
L 935.72761 471.672231 
L 936.372479 464.959428 
L 937.186494 453.95831 
L 937.767933 446.817938 
L 938.317658 444.476122 
L 938.761666 443.430322 
L 939.099958 443.107914 
L 939.364248 443.125985 
L 939.649682 443.398496 
L 940.009118 444.095754 
L 940.474269 445.544379 
L 941.06628 448.196885 
L 941.806294 452.62137 
L 942.75774 459.778061 
L 944.058049 471.413881 
L 948.022408 508.027116 
L 948.994997 514.481752 
L 949.745582 518.096934 
L 950.327022 519.913132 
L 950.760458 520.63564 
L 951.077607 520.793089 
L 951.331326 520.679634 
L 951.627331 520.265157 
L 951.986766 519.333471 
L 952.430775 517.497344 
L 952.621064 515.97363 
L 954.492241 495.475769 
L 955.189968 489.620369 
L 955.951125 485.425476 
L 956.627709 482.843417 
L 957.21972 481.385487 
L 957.716586 480.686547 
L 958.139451 480.436488 
L 958.52003 480.460602 
L 958.921751 480.721282 
L 959.408046 481.329889 
L 960.010628 482.475414 
L 960.782357 484.466418 
L 961.247508 485.892391 
L 961.332081 485.733384 
L 964.45071 479.618104 
L 965.56073 477.965181 
L 966.427604 477.042905 
L 967.135902 476.590147 
L 967.738485 476.452883 
L 968.288209 476.550412 
L 968.837934 476.881369 
L 969.419373 477.507894 
L 970.05367 478.543188 
L 970.740826 480.114127 
L 971.491411 482.409541 
L 972.326569 485.721577 
L 973.182871 490.006243 
L 974.102602 495.797873 
L 974.906045 502.202007 
L 976.280356 515.33035 
L 976.798366 519.464124 
L 977.41152 521.919921 
L 977.92953 523.183416 
L 978.362966 523.728046 
L 978.722401 523.859257 
L 979.060693 523.741506 
L 979.451843 523.341838 
L 979.94871 522.475583 
L 980.593579 520.855037 
L 981.481595 517.955876 
L 984.864514 506.249644 
L 985.498812 505.068525 
L 985.963963 504.613179 
L 986.323398 504.538512 
L 986.651119 504.704514 
L 987.010554 505.166697 
L 987.433419 506.11883 
L 987.89857 507.722718 
L 990.277185 524.261168 
L 990.678907 524.838312 
L 990.996056 524.958225 
L 991.292061 524.833467 
L 991.651496 524.412818 
L 992.127219 523.476797 
L 992.803803 521.597044 
L 995.499567 513.521082 
L 995.954147 512.977071 
L 996.281867 512.879375 
L 996.567301 513.026357 
L 996.88445 513.472611 
L 997.772466 519.842727 
L 998.671054 525.106912 
L 999.019918 526.628763 
L 999.062204 526.51121 
L 999.389924 525.048358 
L 999.823361 521.986839 
L 1000.394229 516.194384 
L 1001.123671 506.306999 
L 1002.085688 489.956345 
L 1003.544572 460.858302 
L 1005.817471 415.842273 
L 1006.536342 411.889153 
L 1007.138924 409.698296 
L 1007.625219 408.673577 
L 1007.995226 408.33709 
L 1008.291231 408.342883 
L 1008.587237 408.592523 
L 1008.946672 409.222713 
L 1009.39068 410.495071 
L 1009.929833 412.771499 
L 1010.574702 416.543576 
L 1011.314715 422.27378 
L 1012.139302 430.443394 
L 1013.450183 448.293792 
L 1015.1205 470.955884 
L 1016.114232 479.714566 
L 1017.023392 485.888698 
L 1017.847978 490.072775 
L 1018.587992 492.757589 
L 1019.232861 494.32445 
L 1019.782586 495.125805 
L 1020.237165 495.437091 
L 1020.638887 495.460332 
L 1021.05118 495.249836 
L 1021.516332 494.74129 
L 1022.076628 493.769187 
L 1022.753211 492.109664 
L 1023.567227 489.475288 
L 1024.550387 485.481448 
L 1025.755552 479.584997 
L 1027.309581 470.782799 
L 1027.595015 469.061929 
L 1027.647873 469.400273 
L 1032.140813 499.414149 
L 1033.504552 506.788807 
L 1034.582858 511.488123 
L 1035.460302 514.399921 
L 1036.179173 516.081468 
L 1036.760612 516.927243 
L 1037.225764 517.246366 
L 1037.606342 517.257027 
L 1037.976349 517.040954 
L 1038.388642 516.525715 
L 1038.874937 515.529149 
L 1039.435233 513.832903 
L 1040.080102 511.114015 
L 1040.798972 507.058299 
L 1041.602416 501.165632 
L 1042.47986 492.982006 
L 1043.431306 481.905255 
L 1044.446182 467.389764 
L 1045.091051 455.492539 
L 1046.486505 425.698879 
L 1047.311092 411.91822 
L 1047.903103 406.718991 
L 1048.389398 404.186327 
L 1048.759404 403.257138 
L 1049.013123 403.09832 
L 1049.213984 403.239988 
L 1049.467703 403.747378 
L 1049.816567 405.024404 
L 1050.271147 407.650912 
L 1050.842014 412.400204 
L 1051.539741 420.224589 
L 1052.396043 432.540922 
L 1053.432062 450.860532 
L 1054.732371 478.043557 
L 1055.95868 503.083045 
L 1058.136434 524.292562 
L 1059.764464 538.103126 
L 1061.096489 547.627804 
L 1062.217081 554.141334 
L 1063.157955 558.398332 
L 1063.950827 561.035074 
L 1064.595696 562.486918 
L 1065.124277 563.185031 
L 1065.547142 563.409425 
L 1065.906577 563.358051 
L 1066.276584 563.065504 
L 1066.699449 562.424422 
L 1067.196315 561.239285 
L 1067.777754 559.237915 
L 1068.443766 556.097264 
L 1069.194352 551.422658 
L 1070.02951 544.737789 
L 1070.949241 535.473402 
L 1071.942974 523.100061 
L 1073.010708 506.915958 
L 1073.423001 498.247553 
L 1074.9136 467.284167 
L 1075.769901 453.220192 
L 1076.54163 444.737311 
L 1077.218214 439.561564 
L 1077.77851 436.80372 
L 1078.233089 435.54386 
L 1078.571381 435.156185 
L 1078.814529 435.15992 
L 1079.068248 435.410248 
L 1079.395968 436.098064 
L 1079.818833 437.576431 
L 1080.347414 440.327827 
L 1080.992283 444.982346 
L 1081.75344 452.206146 
L 1082.155162 456.611686 
L 1082.260878 456.514786 
L 1083.540044 455.177526 
L 1085.020072 453.292249 
L 1086.774961 450.678465 
L 1089.037288 446.881582 
L 1096.913148 433.301266 
L 1098.646894 430.942703 
L 1100.095206 429.328998 
L 1101.353229 428.244716 
L 1102.46325 427.568884 
L 1103.467554 427.209902 
L 1104.387285 427.110742 
L 1105.26473 427.236513 
L 1106.131603 427.586473 
L 1107.019619 428.19223 
L 1107.93935 429.099311 
L 1108.901368 430.370534 
L 1109.926816 432.10974 
L 1111.005121 434.391044 
L 1112.157428 437.371457 
L 1113.373165 441.159047 
L 1114.652331 445.898753 
L 1115.994927 451.753914 
L 1117.178949 457.835556 
L 1119.895856 479.847528 
L 1121.957323 494.8279 
L 1123.680497 505.796634 
L 1124.970235 512.734705 
L 1126.281117 518.67651 
L 1127.433423 522.926273 
L 1128.437728 525.838498 
L 1129.315172 527.746631 
L 1130.065758 528.887035 
L 1130.562624 529.312531 
L 1131.196921 529.439458 
L 1131.862934 529.342828 
L 1132.602947 529.00271 
L 1133.004669 528.882917 
L 1133.871542 529.656896 
L 1136.778738 532.467612 
L 1137.434179 532.699335 
L 1137.973332 532.664719 
L 1138.48077 532.407296 
L 1138.998779 531.883642 
L 1139.559075 530.979063 
L 1140.172229 529.533728 
L 1140.838241 527.356718 
L 1141.567684 524.158528 
L 1141.853117 522.158753 
L 1143.777153 508.802807 
L 1144.443165 506.456499 
L 1145.035176 505.111084 
L 1145.553185 504.436953 
L 1145.997194 504.188425 
L 1146.420058 504.200348 
L 1146.874638 504.448402 
L 1147.424363 505.021227 
L 1148.153805 506.134169 
L 1149.316683 508.380822 
L 1150.500705 510.542263 
L 1151.082144 510.670198 
L 1151.631869 511.024638 
L 1152.192165 511.668464 
L 1152.784176 512.712803 
L 1152.847605 513.090901 
L 1153.820195 519.947566 
L 1154.221916 521.429609 
L 1154.454492 521.664717 
L 1154.602495 521.527756 
L 1154.803356 520.940306 
L 1154.951358 519.899116 
L 1155.41651 512.421226 
L 1155.997949 499.093198 
L 1156.706248 477.328944 
L 1157.647122 448.314573 
L 1158.852287 424.840869 
L 1159.983451 406.96983 
L 1161.030042 393.771222 
L 1162.002631 384.177803 
L 1162.890647 377.509266 
L 1163.683519 373.125737 
L 1164.381246 370.412797 
L 1164.983829 368.878374 
L 1165.491267 368.13413 
L 1165.90356 367.879378 
L 1166.262995 367.901651 
L 1166.643574 368.162708 
L 1167.087582 368.761792 
L 1167.626734 369.891973 
L 1168.282175 371.818761 
L 1169.075047 374.88559 
L 1170.037064 379.555476 
L 1171.221086 386.486443 
L 1172.7434 396.82139 
L 1175.312305 416.077349 
L 1177.870637 434.662988 
L 1179.350665 443.852052 
L 1180.502971 449.697436 
L 1181.306415 452.91818 
L 1181.316986 452.843128 
L 1181.750423 450.539074 
L 1182.046428 449.936973 
L 1182.215574 449.960298 
L 1182.395292 450.285512 
L 1182.649011 451.284169 
L 1182.987303 453.6276 
L 1183.420739 458.385264 
L 1183.938749 466.777971 
L 1184.541331 480.448407 
L 1185.228487 501.470023 
L 1185.989644 531.941925 
L 1186.835374 575.250336 
L 1187.469671 605.7504 
L 1195.461818 605.7504 
L 1195.461818 605.7504 
" style="fill:none;stroke:#ff7f0e;stroke-linecap:square;stroke-width:1.5;"/>
   </g>
   <g id="line2d_17">
    <path clip-path="url(#pf92d732033)" d="M 221.498182 156.565413 
L 221.963333 224.10958 
L 222.354483 252.753049 
L 222.66106 261.758985 
L 222.840778 262.943931 
L 222.85135 262.937618 
L 222.925351 262.687102 
L 223.083925 261.097971 
L 223.401074 255.127417 
L 223.993085 244.50203 
L 224.109373 244.034809 
L 224.151659 244.08858 
L 224.246804 244.706225 
L 224.405378 247.481014 
L 224.627382 255.832146 
L 224.976246 279.064859 
L 226.297699 375.987537 
L 226.88971 391.938155 
L 227.418291 400.800894 
L 227.883442 405.319169 
L 228.285164 407.357215 
L 228.623456 408.110704 
L 228.90889 408.290086 
L 229.067464 408.204374 
L 229.226038 407.689073 
L 229.469186 406.010128 
L 229.807478 401.904444 
L 230.251486 393.439626 
L 230.80121 378.221899 
L 231.118359 364.629465 
L 231.530652 328.204826 
L 231.890087 305.679577 
L 232.42924 293.869949 
L 232.704102 291.581799 
L 232.75696 291.54729 
L 232.799247 291.625422 
L 232.915535 292.35518 
L 233.105824 295.336226 
L 233.370115 303.688769 
L 233.676692 321.059265 
L 234.194701 365.637757 
L 235.23072 454.995577 
L 235.62187 470.596013 
L 236.065878 480.791567 
L 236.425314 484.722735 
L 236.668461 485.569404 
L 236.784749 485.531746 
L 236.932752 485.118861 
L 237.18647 483.591033 
L 237.588192 479.578263 
L 237.915912 474.417218 
L 238.233061 463.664025 
L 238.983646 427.823743 
L 239.480513 409.886358 
L 239.744803 406.523124 
L 239.861091 406.286287 
L 239.892806 406.312685 
L 240.019665 406.691538 
L 240.431959 408.264265 
L 240.474245 408.219219 
L 240.579962 407.753631 
L 240.749107 405.712591 
L 241.647695 390.255775 
L 242.408852 373.168458 
L 243.117151 352.086626 
L 243.624589 328.85145 
L 244.396317 282.320059 
L 245.125759 229.415624 
L 245.157474 229.303632 
L 245.199761 229.530209 
L 245.316049 231.660824 
L 245.538053 240.738702 
L 246.024347 272.379695 
L 246.50007 297.541443 
L 246.975793 307.854866 
L 247.462088 314.623733 
L 247.779237 316.569106 
L 247.916668 316.725599 
L 247.948383 316.699163 
L 248.075242 316.350641 
L 248.276103 314.971726 
L 248.550965 311.324385 
L 248.720111 305.865896 
L 249.026688 287.089005 
L 250.030993 204.236685 
L 250.580717 164.366877 
L 251.109298 143.588771 
L 251.44759 137.138055 
L 251.606164 136.344688 
L 251.637879 136.372281 
L 251.711881 136.74978 
L 251.817597 139.68727 
L 252.060744 154.7267 
L 252.483609 178.311925 
L 252.525896 178.563301 
L 252.568182 178.188479 
L 252.695042 174.385931 
L 252.948761 158.514196 
L 253.678203 110.18023 
L 253.762776 109.8144 
L 253.783919 109.946516 
L 253.868492 113.042965 
L 254.058781 130.47415 
L 254.76708 202.571663 
L 255.401377 223.637009 
L 256.120247 240.149071 
L 257.494558 269.830239 
L 259.492595 325.770704 
L 260.43347 353.137068 
L 260.792905 356.820765 
L 261.131197 358.287229 
L 261.776066 360.351604 
L 262.040356 362.557934 
L 262.38922 367.766259 
L 263.763531 390.619562 
L 263.911534 390.958183 
L 263.943249 390.927788 
L 264.048965 390.54097 
L 264.228682 388.79766 
L 264.514116 383.39446 
L 264.958124 370.115829 
L 266.142146 324.880719 
L 266.850445 292.052123 
L 267.579887 262.005578 
L 267.92875 254.911449 
L 268.034467 254.465489 
L 268.076753 254.549281 
L 268.193041 255.489734 
L 268.404474 259.539077 
L 268.763909 271.543805 
L 269.408778 301.545013 
L 271.544246 418.061491 
L 272.453405 450.784603 
L 273.214562 470.481125 
L 273.912289 483.535515 
L 274.451442 490.012072 
L 274.853164 492.593298 
L 275.128026 493.217851 
L 275.265457 493.184158 
L 275.424031 492.842553 
L 275.656607 491.725397 
L 275.973756 488.945647 
L 276.364906 483.361326 
L 276.840629 473.061685 
L 277.24235 459.731383 
L 277.908363 428.336896 
L 278.87038 385.032315 
L 279.272102 375.570054 
L 279.462391 374.390016 
L 279.472963 374.396774 
L 279.546964 374.638013 
L 279.705539 376.19771 
L 279.980401 381.594831 
L 280.56184 398.629054 
L 281.111564 411.990868 
L 281.629574 417.991733 
L 282.327301 423.630993 
L 283.395035 431.966204 
L 283.934188 438.396349 
L 284.314766 445.422763 
L 284.779918 459.990007 
L 285.77365 491.536777 
L 286.069656 495.071051 
L 286.143657 495.201138 
L 286.185944 495.122073 
L 286.29166 494.383454 
L 286.429091 491.263147 
L 286.68281 479.351873 
L 287.232534 439.907486 
L 287.739972 410.180198 
L 288.025406 404.13835 
L 288.321411 401.500002 
L 288.479986 401.200496 
L 288.501129 401.212008 
L 288.617417 401.47267 
L 288.818278 402.622852 
L 289.15657 406.083209 
L 290.139731 419.61408 
L 290.774028 431.012738 
L 292.000336 458.112436 
L 293.321789 490.029479 
L 294.273235 511.803427 
L 294.75953 518.563915 
L 295.097822 520.6718 
L 295.340969 521.113802 
L 295.488972 521.047398 
L 295.700404 520.624901 
L 296.123269 519.140052 
L 296.65185 517.523842 
L 297.138145 516.582981 
L 297.761871 514.819226 
L 298.702745 511.395443 
L 300.700782 504.007611 
L 301.366794 502.404608 
L 301.842517 501.761377 
L 302.191381 501.615427 
L 302.476815 501.729153 
L 302.793963 502.127051 
L 303.16397 502.987118 
L 303.512834 504.332834 
L 303.703123 506.663771 
L 304.020272 513.814991 
L 304.749714 537.034231 
L 305.278295 550.0816 
L 305.542585 552.51844 
L 306.113453 554.454677 
L 306.599748 555.407383 
L 307.012041 555.778468 
L 307.360905 555.81931 
L 307.730911 555.62517 
L 308.185491 555.104879 
L 308.798645 554.024063 
L 309.792378 551.743502 
L 311.187832 548.639629 
L 311.82213 547.734646 
L 312.276709 547.428336 
L 312.636145 547.439373 
L 312.974437 547.686737 
L 313.355015 548.275149 
L 313.788451 549.394093 
L 314.285318 551.337584 
L 314.465035 552.695954 
L 314.729326 557.011296 
L 315.162762 568.355955 
L 316.431357 603.470299 
L 316.695648 605.7504 
L 317.266515 605.662978 
L 317.551949 604.331251 
L 317.974814 601.150956 
L 318.619683 594.371178 
L 320.416859 574.589511 
L 320.839724 572.259854 
L 321.051157 571.975578 
L 321.199159 572.09736 
L 321.431735 572.678217 
L 322.499469 575.919061 
L 322.520612 575.909012 
L 322.658043 575.69987 
L 322.858904 574.87853 
L 323.112623 572.772515 
L 323.440343 567.817738 
L 323.979496 555.67709 
L 325.152946 528.760595 
L 325.522953 524.886274 
L 326.336968 519.941485 
L 327.108697 516.542974 
L 327.838139 514.273949 
L 328.546437 512.761105 
L 329.254736 511.749739 
L 330.068751 510.977257 
L 331.982215 509.317759 
L 333.293096 507.955304 
L 334.614549 506.895634 
L 335.978288 506.083406 
L 337.437172 505.473796 
L 339.086346 505.030722 
L 341.221813 504.70316 
L 343.293852 504.573274 
L 343.600429 504.921012 
L 344.107867 505.902779 
L 345.059313 507.736215 
L 345.397605 507.954393 
L 349.647397 509.015291 
L 354.28834 509.940808 
L 359.531865 510.753782 
L 365.94884 511.51262 
L 369.966057 511.822101 
L 370.462923 511.504254 
L 372.027523 510.336723 
L 372.619534 510.295384 
L 373.253831 510.483745 
L 373.993845 510.951853 
L 374.934719 511.831 
L 376.573321 513.729351 
L 378.095635 515.360031 
L 378.994223 516.015929 
L 379.702522 516.273057 
L 380.305104 516.262721 
L 380.8654 516.030112 
L 381.436268 515.540847 
L 382.03885 514.713938 
L 382.694291 513.410356 
L 383.40259 511.475192 
L 384.174318 508.67612 
L 384.998905 504.804749 
L 385.178622 503.35243 
L 385.390055 498.703487 
L 385.74949 484.943266 
L 387.092086 428.12465 
L 387.324662 426.382024 
L 387.969531 423.574581 
L 388.540398 421.993855 
L 389.026693 421.241396 
L 389.428415 420.986869 
L 389.78785 421.011022 
L 390.179 421.278247 
L 390.654723 421.897788 
L 391.278449 423.111129 
L 392.155894 425.362346 
L 394.99966 433.040378 
L 395.633958 433.998512 
L 396.109681 434.355302 
L 396.479687 434.378196 
L 396.828551 434.169728 
L 397.209129 433.661155 
L 397.653138 432.659732 
L 398.033716 431.27968 
L 398.224005 429.052524 
L 398.541154 422.310733 
L 399.16488 403.168593 
L 399.852035 384.460095 
L 400.169184 380.701919 
L 400.253757 380.507754 
L 400.306615 380.580508 
L 400.898626 382.200167 
L 401.617496 384.873543 
L 402.484369 389.01497 
L 403.541532 395.220118 
L 404.873556 404.453473 
L 406.765877 419.295879 
L 410.687949 450.346434 
L 412.083403 459.465491 
L 413.17228 465.222983 
L 413.56343 466.649066 
L 413.584574 466.636298 
L 413.69029 466.362009 
L 413.880579 465.087145 
L 414.218871 460.99325 
L 415.339463 446.231191 
L 415.498037 445.880215 
L 415.519181 445.894394 
L 415.614325 446.153234 
L 415.7729 447.392666 
L 415.994904 451.492586 
L 416.375482 463.472055 
L 417.496074 500.919944 
L 417.72865 502.722256 
L 417.781508 502.708816 
L 417.802651 502.66767 
L 417.929511 502.017808 
L 418.151515 499.41779 
L 418.532093 491.794188 
L 419.768973 465.020179 
L 420.043835 463.578155 
L 420.752134 461.172863 
L 421.386431 459.745393 
L 421.946727 458.98397 
L 422.443594 458.650863 
L 422.908745 458.592227 
L 423.405611 458.760915 
L 423.997622 459.217626 
L 424.769351 460.120536 
L 426.19652 462.215649 
L 427.676547 464.609381 
L 428.617422 466.789028 
L 429.854302 470.268379 
L 432.137772 477.519584 
L 433.966663 482.974856 
L 435.108398 485.722397 
L 435.985843 487.299215 
L 436.68357 488.137733 
L 437.254438 488.506581 
L 437.709017 488.564615 
L 437.835877 488.359347 
L 438.047309 487.494141 
L 438.37503 485.073703 
L 438.914182 479.148085 
L 440.235635 464.131005 
L 440.595071 462.350946 
L 440.669072 462.23949 
L 440.711358 462.316072 
L 440.827646 463.073464 
L 441.060222 466.4415 
L 441.927095 480.588198 
L 441.95881 480.592066 
L 441.990525 480.527085 
L 442.117384 479.712263 
L 442.371103 476.494718 
L 442.80454 467.659298 
L 443.893417 444.649461 
L 444.168279 442.723027 
L 444.231709 442.685515 
L 444.273995 442.755576 
L 444.580572 443.947726 
L 445.130297 446.914567 
L 445.817452 451.940752 
L 446.694897 460.141395 
L 447.847204 473.191023 
L 449.781811 498.102088 
L 451.187837 518.002486 
L 452.170998 539.569831 
L 452.826438 551.241097 
L 453.238732 555.143539 
L 453.936459 559.594476 
L 454.549613 562.205283 
L 455.067623 563.553169 
L 455.501059 564.131686 
L 455.849923 564.263721 
L 456.167071 564.145143 
L 456.537078 563.741798 
L 457.00223 562.86758 
L 457.298235 561.92226 
L 457.636527 559.835838 
L 458.101678 555.384442 
L 458.735976 546.920732 
L 459.465418 534.211452 
L 460.068 517.950465 
L 460.924302 496.144256 
L 461.315452 491.189365 
L 461.812318 487.407108 
L 462.161182 486.14291 
L 462.372614 485.974994 
L 462.520617 486.138017 
L 462.732049 486.785425 
L 463.028055 488.5422 
L 463.398062 492.241836 
L 463.662352 497.510793 
L 464.127504 512.106221 
L 465.036663 540.498195 
L 465.322097 543.920178 
L 465.396098 544.053727 
L 465.438385 543.971673 
L 465.575816 543.052382 
L 465.850678 539.60217 
L 466.262971 531.179717 
L 466.897269 512.973047 
L 468.5993 462.075653 
L 468.937592 457.468731 
L 468.969307 457.481868 
L 468.99045 457.536444 
L 469.106738 458.415963 
L 469.349885 462.489941 
L 469.910181 471.773288 
L 469.96304 471.862876 
L 470.005326 471.763209 
L 470.216758 470.393029 
L 470.55505 466.483241 
L 471.242206 455.288276 
L 471.897647 446.07064 
L 472.214795 444.034192 
L 472.331083 443.888481 
L 472.37337 443.927362 
L 472.553087 444.435383 
L 473.589106 448.003995 
L 474.804843 453.03564 
L 476.263727 460.077263 
L 478.092618 470.078635 
L 480.820096 486.390853 
L 484.81617 510.146678 
L 486.687347 519.912761 
L 488.061658 526.020616 
L 488.304806 526.39247 
L 488.46338 526.314148 
L 488.674812 525.87538 
L 489.002533 524.59352 
L 489.594544 521.189659 
L 491.106286 511.04027 
L 492.322023 502.104724 
L 499.553013 462.705158 
L 501.318474 454.612943 
L 502.756214 449.00186 
L 503.739375 445.922188 
L 504.532247 444.155098 
L 505.272261 443.014489 
L 505.969988 442.323256 
L 506.646572 441.95142 
L 507.344299 441.817458 
L 508.137171 441.897599 
L 509.215476 442.251255 
L 510.304353 442.805137 
L 510.632074 443.313017 
L 510.970366 444.30358 
L 511.340372 446.151149 
L 511.752666 449.445483 
L 512.175531 454.706408 
L 512.704112 464.899209 
L 514.131281 493.79282 
L 514.575289 497.886225 
L 514.966439 499.691211 
L 515.304731 500.338442 
L 515.62188 500.509935 
L 516.256177 500.740872 
L 517.397913 501.361473 
L 518.624221 501.773694 
L 520.061962 502.014519 
L 522.271431 502.125064 
L 524.618331 502.307056 
L 526.003214 502.641572 
L 527.102663 503.123397 
L 527.419811 503.518554 
L 527.916677 504.553337 
L 529.142986 507.219592 
L 529.851285 507.905738 
L 533.086201 511.040028 
L 533.7945 511.318139 
L 534.386511 511.321697 
L 534.936235 511.099666 
L 535.48596 510.626562 
L 535.718535 510.208656 
L 535.982826 509.037661 
L 536.426834 505.88307 
L 537.526283 497.813961 
L 537.811717 497.108146 
L 537.938576 497.140561 
L 538.076007 497.515235 
L 538.319155 498.967522 
L 538.742019 503.106527 
L 539.682894 512.474329 
L 539.947184 513.348474 
L 540.11633 513.368898 
L 540.285476 513.083929 
L 540.560339 512.107145 
L 541.078348 509.264176 
L 541.797219 505.621698 
L 542.082652 505.075709 
L 542.230655 505.130032 
L 542.38923 505.524174 
L 542.642948 506.888084 
L 543.086957 510.717721 
L 544.048974 519.120299 
L 544.323836 519.970676 
L 544.429553 519.963546 
L 544.450696 519.933501 
L 544.598699 519.441253 
L 544.852418 517.624179 
L 545.306998 512.411545 
L 546.142156 503.025386 
L 546.417018 501.92482 
L 546.501591 501.931478 
L 546.522734 501.96198 
L 546.649594 502.404911 
L 546.818739 503.891691 
L 547.093602 508.841298 
L 547.590468 522.727439 
L 548.404483 544.6786 
L 548.700488 547.882489 
L 549.429931 550.591842 
L 550.095943 552.27411 
L 550.687954 553.219724 
L 551.227106 553.693327 
L 551.723973 553.850499 
L 552.231411 553.779434 
L 552.823421 553.460079 
L 553.605722 552.76304 
L 556.301486 550.141584 
L 556.882925 549.973261 
L 557.379791 550.056534 
L 557.792084 550.343192 
L 558.310094 551.010329 
L 559.039536 552.361358 
L 561.471009 557.177738 
L 561.989019 557.637169 
L 562.380169 557.719275 
L 562.729032 557.563927 
L 563.099039 557.130626 
L 563.521904 556.254102 
L 564.008199 554.679774 
L 564.177345 553.538792 
L 564.462779 549.80822 
L 564.938501 540.164794 
L 566.080237 516.363409 
L 566.55596 511.849935 
L 567.052826 509.125886 
L 568.004272 504.490342 
L 568.405994 500.828904 
L 568.744286 495.588496 
L 569.516014 478.961156 
L 570.065739 469.681551 
L 570.351173 467.778498 
L 570.478032 467.76417 
L 570.752894 468.05946 
L 571.112329 468.819793 
L 571.588053 470.408812 
L 572.211778 473.34056 
L 573.06808 478.543483 
L 574.600965 489.525672 
L 576.049277 499.26237 
L 576.873864 503.406233 
L 577.381302 505.029766 
L 577.740737 505.520517 
L 578.036743 505.599046 
L 578.353891 505.44196 
L 578.840186 504.909817 
L 579.717631 503.963075 
L 580.045351 503.914661 
L 580.320213 504.112396 
L 580.616219 504.636865 
L 580.965082 505.762887 
L 581.366804 507.88232 
L 581.588808 510.004305 
L 581.831955 515.793918 
L 582.31825 534.070092 
L 582.941976 555.125149 
L 583.185123 557.900847 
L 583.216838 557.908995 
L 583.248553 557.825297 
L 583.354269 556.84244 
L 583.533987 552.417962 
L 583.808849 538.706942 
L 584.231714 504.988081 
L 584.992871 422.763397 
L 585.954888 325.210217 
L 586.42004 298.218574 
L 586.821761 286.447351 
L 587.551203 269.29396 
L 587.678063 268.685784 
L 587.720349 268.762774 
L 587.826066 269.649656 
L 587.995212 273.414992 
L 588.227787 284.20596 
L 588.576651 312.559204 
L 589.253235 389.951044 
L 589.993248 465.530266 
L 590.352683 483.374284 
L 590.733262 492.374507 
L 591.018696 494.942731 
L 591.145555 495.162168 
L 591.17727 495.140683 
L 591.293558 494.826712 
L 591.50499 493.446266 
L 591.89614 489.072521 
L 592.699584 480.116478 
L 592.932159 479.426495 
L 593.016732 479.553061 
L 593.175307 480.369849 
L 593.471312 483.350981 
L 594.274756 491.865067 
L 594.391043 492.079229 
L 594.43333 492.040223 
L 594.539046 491.636072 
L 594.76105 489.581153 
L 595.120486 483.802935 
L 596.600513 457.360673 
L 596.748516 456.980504 
L 596.78023 457.001953 
L 596.875375 457.308514 
L 597.023378 458.780352 
L 597.287668 464.137681 
L 597.75282 478.995561 
L 598.619693 506.160695 
L 598.905127 509.566812 
L 599.084844 510.046033 
L 599.095416 510.043607 
L 599.19056 509.883697 
L 599.370278 508.977137 
L 599.687427 505.936075 
L 600.808019 494.063529 
L 600.934878 493.901682 
L 600.966593 493.932384 
L 601.082881 494.313202 
L 601.241455 495.706935 
L 601.505746 500.601657 
L 601.992041 514.664074 
L 602.721482 534.469751 
L 602.996345 537.276931 
L 603.049203 537.335237 
L 603.091489 537.254648 
L 603.218349 536.411679 
L 603.493211 532.970297 
L 603.905504 524.589975 
L 604.571517 505.734896 
L 605.956399 465.945773 
L 606.347549 459.993382 
L 606.379264 459.964054 
L 606.421551 460.080841 
L 606.537839 461.19974 
L 606.791557 466.368345 
L 607.298995 476.247973 
L 607.362425 476.411098 
L 607.404712 476.293067 
L 607.510428 475.090254 
L 607.891006 465.918761 
L 608.89531 437.325171 
L 610.459911 385.523113 
L 612.73281 311.287126 
L 613.7794 284.244574 
L 614.540557 269.71705 
L 615.153711 261.987846 
L 615.703436 257.624946 
L 616.18973 255.366946 
L 616.612595 254.341096 
L 616.97203 253.973991 
L 617.320894 253.919594 
L 617.838903 254.108199 
L 618.3992 254.237337 
L 618.716348 254.079008 
L 619.022925 253.652108 
L 619.361217 252.762189 
L 619.477505 251.992135 
L 619.762939 248.052388 
L 620.090659 244.769314 
L 620.122374 244.764577 
L 620.154089 244.841042 
L 620.259805 245.763481 
L 620.428951 249.845987 
L 620.714385 264.025328 
L 621.327539 305.785818 
L 624.023303 503.430827 
L 624.615314 533.08658 
L 624.964177 541.635249 
L 625.165038 542.832275 
L 625.23904 542.741986 
L 625.365899 541.991937 
L 625.587903 539.037971 
L 625.936767 530.887816 
L 626.507634 511.375913 
L 627.797372 466.255017 
L 628.125093 461.105826 
L 628.188523 460.988962 
L 628.241381 461.095265 
L 628.378812 462.076806 
L 628.706532 466.606346 
L 629.055396 470.142256 
L 629.097682 470.191418 
L 629.139969 470.120825 
L 629.245685 469.347953 
L 629.499404 464.92948 
L 629.93284 452.686388 
L 631.053432 419.59254 
L 631.328295 416.95173 
L 631.381153 416.898441 
L 631.423439 416.97368 
L 631.539727 417.753029 
L 631.68773 420.386396 
L 631.920305 429.809565 
L 632.332599 457.517938 
L 633.284045 523.165877 
L 633.675195 533.57166 
L 634.214348 543.026739 
L 634.721786 548.410694 
L 635.239795 551.687541 
L 636.561248 558.789964 
L 637.35412 566.493238 
L 638.85529 580.945327 
L 639.426158 584.417647 
L 639.806736 585.595405 
L 640.039312 585.768895 
L 640.187315 585.626633 
L 640.335317 585.019747 
L 640.589036 582.807522 
L 640.990758 576.992282 
L 643.02051 544.040606 
L 643.792238 535.451122 
L 644.172817 533.250773 
L 644.384249 532.941198 
L 644.500537 533.101334 
L 644.680255 533.866816 
L 644.955117 536.255959 
L 645.388553 542.32845 
L 646.403429 560.903664 
L 647.016583 569.658447 
L 647.365447 572.069742 
L 647.71431 572.96661 
L 647.957458 573.110119 
L 648.158319 572.96506 
L 648.433181 572.426273 
L 648.824331 571.092597 
L 649.416342 568.16734 
L 651.530666 555.736304 
L 652.693545 547.34023 
L 653.010694 546.504976 
L 653.348986 546.188128 
L 653.613276 546.219397 
L 653.89871 546.507618 
L 654.268717 547.242096 
L 654.755011 548.757931 
L 655.389309 551.531098 
L 656.023606 555.368723 
L 657.112483 563.579106 
L 658.423365 573.001712 
L 659.068234 576.171782 
L 659.797676 578.470047 
L 660.199397 579.170253 
L 660.431973 579.228872 
L 660.622262 579.032786 
L 660.865409 578.404517 
L 661.171987 576.905127 
L 661.541993 573.854483 
L 661.890857 569.163052 
L 662.345437 559.198918 
L 664.015753 519.43692 
L 664.364617 516.829277 
L 664.618336 516.218676 
L 664.77691 516.2269 
L 664.977771 516.525468 
L 665.770643 517.929105 
L 665.918645 517.719634 
L 666.151221 516.876938 
L 666.626944 514.269473 
L 668.212688 504.928724 
L 668.508693 504.384113 
L 668.646124 504.442176 
L 668.836413 504.840407 
L 669.164134 506.162312 
L 670.327012 511.346851 
L 670.517302 511.404524 
L 671.257315 511.169077 
L 672.103045 510.653952 
L 673.117921 509.759364 
L 674.471089 508.244252 
L 678.530592 503.501579 
L 679.725185 502.295459 
L 680.348911 501.562107 
L 680.613201 501.54137 
L 680.835206 501.75509 
L 681.099496 502.363362 
L 681.416645 503.719846 
L 682.156658 508.295644 
L 683.192677 516.252791 
L 686.565025 543.284149 
L 687.31561 547.157511 
L 687.875907 549.031213 
L 688.573634 550.51613 
L 689.197359 551.358838 
L 689.747084 551.758433 
L 690.254522 551.869008 
L 690.772531 551.751249 
L 691.343399 551.381363 
L 692.019983 550.66169 
L 692.865713 549.413901 
L 694.007448 547.297142 
L 696.861786 541.813413 
L 697.379796 541.488337 
L 698.088095 541.334064 
L 698.902109 541.112191 
L 699.377833 540.738086 
L 699.832412 540.078323 
L 700.308135 538.958655 
L 700.815573 537.150391 
L 701.365298 534.314673 
L 701.96788 529.949679 
L 702.612749 523.560293 
L 703.278761 514.686719 
L 703.965917 502.133574 
L 704.885648 480.862636 
L 706.333961 441.409835 
L 708.395427 386.187043 
L 709.346873 366.45612 
L 710.256033 352.41355 
L 711.503484 336.156738 
L 712.624076 324.294121 
L 713.628381 315.894139 
L 714.505825 310.300651 
L 715.266982 306.779457 
L 715.901279 304.797339 
L 716.419289 303.825086 
L 716.778724 303.495743 
L 716.789296 303.504966 
L 716.852725 303.860544 
L 716.990157 306.237174 
L 717.254447 315.635878 
L 718.523042 367.82285 
L 719.474488 388.485738 
L 720.521079 412.069833 
L 721.070803 429.513852 
L 721.557098 456.027513 
L 722.22311 489.329793 
L 722.487401 493.988936 
L 722.603688 494.323153 
L 722.645975 494.269511 
L 722.762263 493.682958 
L 722.973695 491.182787 
L 723.343702 483.62064 
L 724.411436 460.386987 
L 724.622869 459.295255 
L 724.63344 459.29662 
L 724.707442 459.47098 
L 724.844872 460.63043 
L 725.066877 465.038166 
L 725.426312 477.371289 
L 726.98034 536.815572 
L 727.741497 550.001987 
L 728.481511 559.177502 
L 729.210953 565.609607 
L 729.982681 570.520989 
L 730.616979 573.265327 
L 731.166703 574.747674 
L 731.621283 575.404082 
L 731.99129 575.590999 
L 732.31901 575.517048 
L 732.689017 575.184936 
L 733.143597 574.450075 
L 733.651035 573.198021 
L 733.999898 571.552351 
L 734.443906 568.249569 
L 734.993631 562.312631 
L 735.6385 552.733072 
L 736.103651 542.184317 
L 737.678823 503.660646 
L 737.9854 501.273256 
L 738.630269 498.695486 
L 739.179993 497.326811 
L 739.634573 496.727213 
L 740.00458 496.570343 
L 740.342872 496.670733 
L 740.72345 497.044659 
L 741.188602 497.849753 
L 741.770041 499.343827 
L 742.499483 501.885386 
L 743.429786 506.002035 
L 744.360089 511.071768 
L 744.656094 514.711471 
L 745.152961 524.036549 
L 746.326411 546.652614 
L 746.791562 550.806823 
L 747.595005 556.263144 
L 748.335019 559.857428 
L 749.011603 562.125748 
L 749.635329 563.497964 
L 750.206196 564.259257 
L 754.297414 568.081758 
L 755.354577 568.730906 
L 756.200307 569.002708 
L 756.94032 569.012539 
L 757.627476 568.796979 
L 758.30406 568.343596 
L 759.001787 567.595159 
L 759.7418 566.455238 
L 760.524101 564.822247 
L 761.359259 562.544731 
L 761.834982 560.747056 
L 762.046414 558.141095 
L 762.40585 550.452901 
L 763.759017 518.601226 
L 763.959878 517.898502 
L 765.809912 515.463882 
L 767.628231 513.431155 
L 769.435979 511.739255 
L 771.233155 510.358027 
L 773.040902 509.246728 
L 774.869793 508.381115 
L 776.751542 507.735303 
L 778.717864 507.295935 
L 780.811045 507.057595 
L 783.105088 507.023661 
L 785.737422 507.21435 
L 789.056911 507.691535 
L 798.391655 509.367644 
L 798.613658 510.169805 
L 798.983665 512.524107 
L 800.241688 521.250803 
L 800.463693 521.514188 
L 801.372852 521.587647 
L 802.33487 521.438708 
L 803.392032 521.044333 
L 804.61834 520.339583 
L 806.140654 519.192253 
L 808.582699 517.027501 
L 811.215033 514.783554 
L 812.705632 513.799873 
L 813.900225 513.26525 
L 814.936245 513.036776 
L 815.877119 513.054515 
L 816.236554 513.218686 
L 816.659419 513.692875 
L 817.209144 514.685242 
L 817.970301 516.569795 
L 820.866925 524.23923 
L 821.406078 524.895168 
L 821.797228 525.065682 
L 822.124948 524.978115 
L 822.484383 524.624313 
L 823.63669 523.060304 
L 824.958143 520.872653 
L 826.5016 517.864144 
L 828.362206 513.722421 
L 830.835966 507.626721 
L 837.696949 490.418922 
L 839.58927 486.429388 
L 841.143298 483.645389 
L 842.242747 482.072122 
L 842.824186 481.628234 
L 843.373911 481.475967 
L 843.934207 481.55255 
L 844.568504 481.876797 
L 845.340233 482.539103 
L 846.418538 483.788782 
L 849.050872 486.94729 
L 849.547739 487.635468 
L 849.94946 488.608106 
L 850.361754 490.234049 
L 850.79519 492.899003 
L 851.281485 497.540759 
L 853.237235 517.938732 
L 853.882104 520.34192 
L 854.875837 523.357319 
L 855.784996 525.445878 
L 856.609583 526.814872 
L 857.349596 527.639014 
L 858.015609 528.068929 
L 858.639334 528.215641 
L 859.252489 528.129174 
L 859.897358 527.803388 
L 860.764231 527.086523 
L 861.757963 525.96199 
L 862.941985 524.266491 
L 864.400869 521.764562 
L 866.462336 517.741818 
L 870.553554 509.692911 
L 872.075868 507.232177 
L 873.281033 505.679714 
L 874.295908 504.715074 
L 875.162781 504.181942 
L 875.786507 504.026187 
L 876.251659 504.164291 
L 876.769668 504.564472 
L 877.393394 505.346667 
L 878.175694 506.709932 
L 879.232856 509.042998 
L 883.313503 518.549045 
L 884.07466 519.57095 
L 884.434095 519.78932 
L 884.634956 519.610691 
L 884.930961 518.998125 
L 885.448971 517.311749 
L 886.315844 514.565985 
L 886.632992 514.163506 
L 886.844425 514.199942 
L 887.098144 514.524872 
L 887.489294 515.456803 
L 888.853033 519.035846 
L 889.667048 519.631719 
L 891.073074 520.446271 
L 892.373384 520.948323 
L 893.58912 521.185085 
L 894.751999 521.189108 
L 895.819733 520.977979 
L 896.496317 520.597681 
L 897.352618 519.840178 
L 898.769216 518.236458 
L 900.312673 516.591891 
L 901.158403 516.000928 
L 901.813843 515.797091 
L 902.374139 515.847135 
L 902.617287 516.022258 
L 902.849862 516.62307 
L 903.241012 518.382485 
L 904.467321 524.33009 
L 904.773898 524.703873 
L 906.190495 526.325869 
L 908.294248 529.115082 
L 911.444592 533.258479 
L 912.903476 534.802397 
L 914.055783 535.715401 
L 915.028372 536.21624 
L 915.884674 536.415402 
L 916.666974 536.37265 
L 917.417559 536.107948 
L 918.168144 535.603599 
L 918.950444 534.800974 
L 919.775031 533.623937 
L 920.536188 532.157262 
L 921.360774 530.023794 
L 922.343935 526.817804 
L 923.527957 522.147268 
L 925.007984 515.339669 
L 927.101166 504.55208 
L 931.319243 482.645321 
L 932.8627 475.906593 
L 933.412425 474.151456 
L 933.581571 474.160292 
L 933.782431 474.48039 
L 934.205296 475.70817 
L 934.649305 476.734871 
L 934.829022 476.768335 
L 934.987596 476.505657 
L 935.199029 475.617241 
L 935.46332 473.390364 
L 935.896756 467.480529 
L 937.165351 449.105963 
L 937.440213 447.885457 
L 937.524786 447.883126 
L 937.545929 447.913 
L 937.905364 448.811693 
L 938.803953 451.536065 
L 939.871686 455.530189 
L 941.171996 461.312 
L 942.831741 469.777615 
L 945.601506 485.270899 
L 948.413558 500.573541 
L 950.031016 508.193591 
L 951.299611 513.167003 
L 952.33563 516.395297 
L 952.642207 517.04042 
L 952.673922 517.016262 
L 952.79021 516.709143 
L 953.001642 515.365446 
L 953.350506 511.435049 
L 954.904534 491.722582 
L 955.665691 489.45783 
L 956.384562 487.976485 
L 957.061146 487.061384 
L 957.727158 486.519791 
L 958.424885 486.235075 
L 959.312901 486.128399 
L 961.067791 485.96506 
L 962.220098 485.486636 
L 966.512177 483.670021 
L 967.83363 483.409602 
L 968.954222 483.409973 
L 969.969097 483.630602 
L 970.931115 484.068519 
L 971.87199 484.743638 
L 972.337141 485.278286 
L 972.633146 486.171793 
L 973.066583 488.290638 
L 973.732595 492.814001 
L 974.832044 501.892666 
L 976.396644 517.872596 
L 976.62922 518.290156 
L 977.210659 518.533836 
L 977.781527 518.537298 
L 978.394681 518.310128 
L 979.092408 517.800134 
L 979.938138 516.887471 
L 981.037587 515.347901 
L 983.099053 511.982897 
L 984.695368 509.584348 
L 985.710244 508.436886 
L 986.492544 507.861832 
L 987.147985 507.640344 
L 987.718853 507.673002 
L 987.993715 507.853994 
L 988.173432 508.532807 
L 988.480009 510.756994 
L 989.124879 517.56466 
L 989.695746 522.561065 
L 989.970608 523.494026 
L 990.3089 523.622944 
L 990.689479 523.551926 
L 991.122915 523.227805 
L 991.662068 522.521058 
L 992.39151 521.157758 
L 993.607247 518.32489 
L 995.044987 515.123958 
L 995.774429 513.998456 
L 996.313582 513.533384 
L 996.725875 513.441963 
L 996.958451 513.569248 
L 997.117026 514.209727 
L 997.391888 516.439694 
L 998.671054 528.386916 
L 998.766199 528.294649 
L 998.90363 527.678672 
L 999.136205 525.349602 
L 999.844504 515.83035 
L 1000.79595 499.770473 
L 1002.48741 466.662455 
L 1004.094297 436.885067 
L 1005.014028 423.656185 
L 1005.690612 416.784747 
L 1006.261479 413.094015 
L 1006.768917 411.073849 
L 1007.181211 410.212803 
L 1007.498359 409.982026 
L 1007.76265 410.052629 
L 1008.058655 410.39283 
L 1008.449806 411.225791 
L 1008.967815 412.912431 
L 1009.665542 416.023252 
L 1010.701561 421.789929 
L 1012.382449 432.422638 
L 1012.784171 438.134747 
L 1014.475631 464.876023 
L 1014.750493 465.704428 
L 1015.754797 467.831116 
L 1016.706243 469.344067 
L 1017.604831 470.373825 
L 1018.471704 471.042876 
L 1019.328006 471.431122 
L 1020.216022 471.58945 
L 1021.17804 471.530187 
L 1022.309203 471.226622 
L 1023.863232 470.555094 
L 1026.833858 469.239484 
L 1027.996737 468.994178 
L 1029.201902 468.976355 
L 1030.681929 469.189366 
L 1033.789986 469.942757 
L 1035.481446 470.195761 
L 1036.739469 470.166124 
L 1037.838918 469.919885 
L 1038.853794 469.463156 
L 1039.836954 468.771126 
L 1040.809544 467.808155 
L 1041.803276 466.50083 
L 1042.828724 464.768818 
L 1043.885886 462.532018 
L 1044.932477 459.797877 
L 1045.080479 458.605011 
L 1045.334198 454.387509 
L 1045.778207 442.596454 
L 1046.750796 416.416834 
L 1047.025658 413.785309 
L 1047.089088 413.71181 
L 1047.131374 413.788257 
L 1047.480238 415.341566 
L 1048.029962 418.807206 
L 1048.738261 424.843244 
L 1049.668564 434.866154 
L 1051.07459 452.753642 
L 1053.474348 483.221378 
L 1054.457509 492.853945 
L 1055.186951 498.018393 
L 1055.736676 500.515684 
L 1057.0687 504.756308 
L 1058.316152 508.015342 
L 1059.47903 510.460534 
L 1060.567907 512.254071 
L 1061.572211 513.501021 
L 1062.513086 514.329254 
L 1063.390531 514.817139 
L 1064.236261 515.037731 
L 1065.071419 515.024533 
L 1065.917149 514.786667 
L 1066.815737 514.297043 
L 1067.788326 513.505068 
L 1068.85606 512.338806 
L 1070.040082 510.704912 
L 1071.361534 508.48953 
L 1072.852133 505.538598 
L 1073.232712 504.48406 
L 1073.433573 502.411772 
L 1073.761293 496.331366 
L 1074.374447 479.928117 
L 1075.146176 460.981015 
L 1075.484467 457.163271 
L 1076.118765 454.38157 
L 1076.679061 452.82788 
L 1077.165356 452.066908 
L 1077.577649 451.786554 
L 1077.958227 451.780016 
L 1078.381092 452.008732 
L 1078.920245 452.579624 
L 1079.744832 453.824614 
L 1081.224859 456.059154 
L 1081.795727 456.529528 
L 1082.229163 456.620467 
L 1084.132055 456.511817 
L 1086.24638 456.163575 
L 1088.72014 455.521904 
L 1091.997343 454.423325 
L 1099.238905 451.929119 
L 1101.744379 451.34612 
L 1103.869276 451.075142 
L 1105.772168 451.05399 
L 1107.527057 451.25517 
L 1109.186802 451.668844 
L 1110.783117 452.29627 
L 1112.347717 453.152244 
L 1113.901746 454.260266 
L 1115.455775 455.646629 
L 1117.020375 457.345211 
L 1117.422096 457.994931 
L 1117.813246 459.209763 
L 1118.331256 461.634141 
L 1119.00784 465.970671 
L 1119.938143 473.528259 
L 1121.893893 491.835424 
L 1123.141344 502.265725 
L 1123.95536 507.352266 
L 1125.149953 513.108022 
L 1126.36569 517.901339 
L 1127.644856 522.056324 
L 1129.135455 526.12708 
L 1130.700055 529.810297 
L 1131.048918 530.094984 
L 1131.376639 530.086083 
L 1131.778361 529.825992 
L 1133.268959 528.650046 
L 1134.421266 528.323293 
L 1138.375053 527.420273 
L 1139.305356 526.834158 
L 1140.172229 526.021803 
L 1141.028531 524.906878 
L 1141.705115 523.702298 
L 1141.948262 522.531073 
L 1142.360555 519.239618 
L 1143.481147 509.825498 
L 1143.756009 509.136785 
L 1144.41145 508.384387 
L 1145.035176 507.992254 
L 1145.64833 507.866707 
L 1146.303771 507.964968 
L 1147.086071 508.319705 
L 1148.227806 509.112058 
L 1150.098983 510.401222 
L 1152.001875 511.464614 
L 1152.530457 512.213732 
L 1152.921607 513.128696 
L 1153.196469 514.761626 
L 1154.422777 523.166571 
L 1154.528494 523.078082 
L 1154.676496 522.516659 
L 1154.887929 520.688719 
L 1155.141648 516.373828 
L 1155.543369 505.07471 
L 1157.04454 458.878379 
L 1157.277116 457.339009 
L 1158.556282 454.389292 
L 1159.78259 452.098212 
L 1160.95604 450.358637 
L 1162.087204 449.066062 
L 1163.186653 448.13969 
L 1164.264958 447.51769 
L 1165.343264 447.15082 
L 1166.453284 447.00964 
L 1167.626734 447.087181 
L 1168.927044 447.401746 
L 1170.438786 448.005536 
L 1172.394537 449.044147 
L 1178.050355 452.196502 
L 1179.562097 452.702597 
L 1180.851835 452.90657 
L 1181.443846 452.839069 
L 1181.697565 452.387472 
L 1182.374149 451.107122 
L 1182.532723 451.189197 
L 1182.712441 451.628019 
L 1182.945016 452.892452 
L 1183.241022 455.94428 
L 1183.632172 462.716496 
L 1184.234754 477.376877 
L 1186.634513 540.344061 
L 1187.025663 544.342988 
L 1187.258239 545.064404 
L 1187.353383 544.961403 
L 1187.501386 544.309537 
L 1187.72339 542.13773 
L 1188.029967 536.577099 
L 1188.410545 525.093933 
L 1188.865125 503.914415 
L 1189.383135 468.594541 
L 1189.964574 412.891382 
L 1190.609443 328.655141 
L 1191.317742 205.433453 
L 1191.899181 109.8144 
L 1195.461818 109.8144 
L 1195.461818 109.8144 
" style="fill:none;stroke:#2ca02c;stroke-linecap:square;stroke-width:1.5;"/>
   </g>
   <g id="patch_3">
    <path d="M 172.8 630.5472 
L 172.8 85.0176 
" style="fill:none;stroke:#000000;stroke-linecap:square;stroke-linejoin:miter;stroke-width:0.8;"/>
   </g>
   <g id="patch_4">
    <path d="M 1244.16 630.5472 
L 1244.16 85.0176 
" style="fill:none;stroke:#000000;stroke-linecap:square;stroke-linejoin:miter;stroke-width:0.8;"/>
   </g>
   <g id="patch_5">
    <path d="M 172.8 630.5472 
L 1244.16 630.5472 
" style="fill:none;stroke:#000000;stroke-linecap:square;stroke-linejoin:miter;stroke-width:0.8;"/>
   </g>
   <g id="patch_6">
    <path d="M 172.8 85.0176 
L 1244.16 85.0176 
" style="fill:none;stroke:#000000;stroke-linecap:square;stroke-linejoin:miter;stroke-width:0.8;"/>
   </g>
   <g id="legend_1">
    <g id="patch_7">
     <path d="M 179.8 137.051975 
L 249.178125 137.051975 
Q 251.178125 137.051975 251.178125 135.051975 
L 251.178125 92.0176 
Q 251.178125 90.0176 249.178125 90.0176 
L 179.8 90.0176 
Q 177.8 90.0176 177.8 92.0176 
L 177.8 135.051975 
Q 177.8 137.051975 179.8 137.051975 
z
" style="fill:#ffffff;opacity:0.8;stroke:#cccccc;stroke-linejoin:miter;"/>
    </g>
    <g id="line2d_18">
     <path d="M 181.8 98.116037 
L 201.8 98.116037 
" style="fill:none;stroke:#1f77b4;stroke-linecap:square;stroke-width:1.5;"/>
    </g>
    <g id="line2d_19"/>
    <g id="text_15">
     <!-- original -->
     <defs>
      <path d="M 30.609375 48.390625 
Q 23.390625 48.390625 19.1875 42.75 
Q 14.984375 37.109375 14.984375 27.296875 
Q 14.984375 17.484375 19.15625 11.84375 
Q 23.34375 6.203125 30.609375 6.203125 
Q 37.796875 6.203125 41.984375 11.859375 
Q 46.1875 17.53125 46.1875 27.296875 
Q 46.1875 37.015625 41.984375 42.703125 
Q 37.796875 48.390625 30.609375 48.390625 
z
M 30.609375 56 
Q 42.328125 56 49.015625 48.375 
Q 55.71875 40.765625 55.71875 27.296875 
Q 55.71875 13.875 49.015625 6.21875 
Q 42.328125 -1.421875 30.609375 -1.421875 
Q 18.84375 -1.421875 12.171875 6.21875 
Q 5.515625 13.875 5.515625 27.296875 
Q 5.515625 40.765625 12.171875 48.375 
Q 18.84375 56 30.609375 56 
z
" id="DejaVuSans-111"/>
      <path d="M 41.109375 46.296875 
Q 39.59375 47.171875 37.8125 47.578125 
Q 36.03125 48 33.890625 48 
Q 26.265625 48 22.1875 43.046875 
Q 18.109375 38.09375 18.109375 28.8125 
L 18.109375 0 
L 9.078125 0 
L 9.078125 54.6875 
L 18.109375 54.6875 
L 18.109375 46.1875 
Q 20.953125 51.171875 25.484375 53.578125 
Q 30.03125 56 36.53125 56 
Q 37.453125 56 38.578125 55.875 
Q 39.703125 55.765625 41.0625 55.515625 
z
" id="DejaVuSans-114"/>
      <path d="M 9.421875 54.6875 
L 18.40625 54.6875 
L 18.40625 0 
L 9.421875 0 
z
M 9.421875 75.984375 
L 18.40625 75.984375 
L 18.40625 64.59375 
L 9.421875 64.59375 
z
" id="DejaVuSans-105"/>
      <path d="M 45.40625 27.984375 
Q 45.40625 37.75 41.375 43.109375 
Q 37.359375 48.484375 30.078125 48.484375 
Q 22.859375 48.484375 18.828125 43.109375 
Q 14.796875 37.75 14.796875 27.984375 
Q 14.796875 18.265625 18.828125 12.890625 
Q 22.859375 7.515625 30.078125 7.515625 
Q 37.359375 7.515625 41.375 12.890625 
Q 45.40625 18.265625 45.40625 27.984375 
z
M 54.390625 6.78125 
Q 54.390625 -7.171875 48.1875 -13.984375 
Q 42 -20.796875 29.203125 -20.796875 
Q 24.46875 -20.796875 20.265625 -20.09375 
Q 16.0625 -19.390625 12.109375 -17.921875 
L 12.109375 -9.1875 
Q 16.0625 -11.328125 19.921875 -12.34375 
Q 23.78125 -13.375 27.78125 -13.375 
Q 36.625 -13.375 41.015625 -8.765625 
Q 45.40625 -4.15625 45.40625 5.171875 
L 45.40625 9.625 
Q 42.625 4.78125 38.28125 2.390625 
Q 33.9375 0 27.875 0 
Q 17.828125 0 11.671875 7.65625 
Q 5.515625 15.328125 5.515625 27.984375 
Q 5.515625 40.671875 11.671875 48.328125 
Q 17.828125 56 27.875 56 
Q 33.9375 56 38.28125 53.609375 
Q 42.625 51.21875 45.40625 46.390625 
L 45.40625 54.6875 
L 54.390625 54.6875 
z
" id="DejaVuSans-103"/>
      <path d="M 54.890625 33.015625 
L 54.890625 0 
L 45.90625 0 
L 45.90625 32.71875 
Q 45.90625 40.484375 42.875 44.328125 
Q 39.84375 48.1875 33.796875 48.1875 
Q 26.515625 48.1875 22.3125 43.546875 
Q 18.109375 38.921875 18.109375 30.90625 
L 18.109375 0 
L 9.078125 0 
L 9.078125 54.6875 
L 18.109375 54.6875 
L 18.109375 46.1875 
Q 21.34375 51.125 25.703125 53.5625 
Q 30.078125 56 35.796875 56 
Q 45.21875 56 50.046875 50.171875 
Q 54.890625 44.34375 54.890625 33.015625 
z
" id="DejaVuSans-110"/>
      <path d="M 34.28125 27.484375 
Q 23.390625 27.484375 19.1875 25 
Q 14.984375 22.515625 14.984375 16.5 
Q 14.984375 11.71875 18.140625 8.90625 
Q 21.296875 6.109375 26.703125 6.109375 
Q 34.1875 6.109375 38.703125 11.40625 
Q 43.21875 16.703125 43.21875 25.484375 
L 43.21875 27.484375 
z
M 52.203125 31.203125 
L 52.203125 0 
L 43.21875 0 
L 43.21875 8.296875 
Q 40.140625 3.328125 35.546875 0.953125 
Q 30.953125 -1.421875 24.3125 -1.421875 
Q 15.921875 -1.421875 10.953125 3.296875 
Q 6 8.015625 6 15.921875 
Q 6 25.140625 12.171875 29.828125 
Q 18.359375 34.515625 30.609375 34.515625 
L 43.21875 34.515625 
L 43.21875 35.40625 
Q 43.21875 41.609375 39.140625 45 
Q 35.0625 48.390625 27.6875 48.390625 
Q 23 48.390625 18.546875 47.265625 
Q 14.109375 46.140625 10.015625 43.890625 
L 10.015625 52.203125 
Q 14.9375 54.109375 19.578125 55.046875 
Q 24.21875 56 28.609375 56 
Q 40.484375 56 46.34375 49.84375 
Q 52.203125 43.703125 52.203125 31.203125 
z
" id="DejaVuSans-97"/>
      <path d="M 9.421875 75.984375 
L 18.40625 75.984375 
L 18.40625 0 
L 9.421875 0 
z
" id="DejaVuSans-108"/>
     </defs>
     <g transform="translate(209.8 101.616037)scale(0.1 -0.1)">
      <use xlink:href="#DejaVuSans-111"/>
      <use x="61.181641" xlink:href="#DejaVuSans-114"/>
      <use x="102.294922" xlink:href="#DejaVuSans-105"/>
      <use x="130.078125" xlink:href="#DejaVuSans-103"/>
      <use x="193.554688" xlink:href="#DejaVuSans-105"/>
      <use x="221.337891" xlink:href="#DejaVuSans-110"/>
      <use x="284.716797" xlink:href="#DejaVuSans-97"/>
      <use x="345.996094" xlink:href="#DejaVuSans-108"/>
     </g>
    </g>
    <g id="line2d_20">
     <path d="M 181.8 112.794162 
L 201.8 112.794162 
" style="fill:none;stroke:#ff7f0e;stroke-linecap:square;stroke-width:1.5;"/>
    </g>
    <g id="line2d_21"/>
    <g id="text_16">
     <!-- cubic -->
     <defs>
      <path d="M 48.78125 52.59375 
L 48.78125 44.1875 
Q 44.96875 46.296875 41.140625 47.34375 
Q 37.3125 48.390625 33.40625 48.390625 
Q 24.65625 48.390625 19.8125 42.84375 
Q 14.984375 37.3125 14.984375 27.296875 
Q 14.984375 17.28125 19.8125 11.734375 
Q 24.65625 6.203125 33.40625 6.203125 
Q 37.3125 6.203125 41.140625 7.25 
Q 44.96875 8.296875 48.78125 10.40625 
L 48.78125 2.09375 
Q 45.015625 0.34375 40.984375 -0.53125 
Q 36.96875 -1.421875 32.421875 -1.421875 
Q 20.0625 -1.421875 12.78125 6.34375 
Q 5.515625 14.109375 5.515625 27.296875 
Q 5.515625 40.671875 12.859375 48.328125 
Q 20.21875 56 33.015625 56 
Q 37.15625 56 41.109375 55.140625 
Q 45.0625 54.296875 48.78125 52.59375 
z
" id="DejaVuSans-99"/>
      <path d="M 8.5 21.578125 
L 8.5 54.6875 
L 17.484375 54.6875 
L 17.484375 21.921875 
Q 17.484375 14.15625 20.5 10.265625 
Q 23.53125 6.390625 29.59375 6.390625 
Q 36.859375 6.390625 41.078125 11.03125 
Q 45.3125 15.671875 45.3125 23.6875 
L 45.3125 54.6875 
L 54.296875 54.6875 
L 54.296875 0 
L 45.3125 0 
L 45.3125 8.40625 
Q 42.046875 3.421875 37.71875 1 
Q 33.40625 -1.421875 27.6875 -1.421875 
Q 18.265625 -1.421875 13.375 4.4375 
Q 8.5 10.296875 8.5 21.578125 
z
M 31.109375 56 
z
" id="DejaVuSans-117"/>
      <path d="M 48.6875 27.296875 
Q 48.6875 37.203125 44.609375 42.84375 
Q 40.53125 48.484375 33.40625 48.484375 
Q 26.265625 48.484375 22.1875 42.84375 
Q 18.109375 37.203125 18.109375 27.296875 
Q 18.109375 17.390625 22.1875 11.75 
Q 26.265625 6.109375 33.40625 6.109375 
Q 40.53125 6.109375 44.609375 11.75 
Q 48.6875 17.390625 48.6875 27.296875 
z
M 18.109375 46.390625 
Q 20.953125 51.265625 25.265625 53.625 
Q 29.59375 56 35.59375 56 
Q 45.5625 56 51.78125 48.09375 
Q 58.015625 40.1875 58.015625 27.296875 
Q 58.015625 14.40625 51.78125 6.484375 
Q 45.5625 -1.421875 35.59375 -1.421875 
Q 29.59375 -1.421875 25.265625 0.953125 
Q 20.953125 3.328125 18.109375 8.203125 
L 18.109375 0 
L 9.078125 0 
L 9.078125 75.984375 
L 18.109375 75.984375 
z
" id="DejaVuSans-98"/>
     </defs>
     <g transform="translate(209.8 116.294162)scale(0.1 -0.1)">
      <use xlink:href="#DejaVuSans-99"/>
      <use x="54.980469" xlink:href="#DejaVuSans-117"/>
      <use x="118.359375" xlink:href="#DejaVuSans-98"/>
      <use x="181.835938" xlink:href="#DejaVuSans-105"/>
      <use x="209.619141" xlink:href="#DejaVuSans-99"/>
     </g>
    </g>
    <g id="line2d_22">
     <path d="M 181.8 127.472287 
L 201.8 127.472287 
" style="fill:none;stroke:#2ca02c;stroke-linecap:square;stroke-width:1.5;"/>
    </g>
    <g id="line2d_23"/>
    <g id="text_17">
     <!-- spline -->
     <defs>
      <path d="M 44.28125 53.078125 
L 44.28125 44.578125 
Q 40.484375 46.53125 36.375 47.5 
Q 32.28125 48.484375 27.875 48.484375 
Q 21.1875 48.484375 17.84375 46.4375 
Q 14.5 44.390625 14.5 40.28125 
Q 14.5 37.15625 16.890625 35.375 
Q 19.28125 33.59375 26.515625 31.984375 
L 29.59375 31.296875 
Q 39.15625 29.25 43.1875 25.515625 
Q 47.21875 21.78125 47.21875 15.09375 
Q 47.21875 7.46875 41.1875 3.015625 
Q 35.15625 -1.421875 24.609375 -1.421875 
Q 20.21875 -1.421875 15.453125 -0.5625 
Q 10.6875 0.296875 5.421875 2 
L 5.421875 11.28125 
Q 10.40625 8.6875 15.234375 7.390625 
Q 20.0625 6.109375 24.8125 6.109375 
Q 31.15625 6.109375 34.5625 8.28125 
Q 37.984375 10.453125 37.984375 14.40625 
Q 37.984375 18.0625 35.515625 20.015625 
Q 33.0625 21.96875 24.703125 23.78125 
L 21.578125 24.515625 
Q 13.234375 26.265625 9.515625 29.90625 
Q 5.8125 33.546875 5.8125 39.890625 
Q 5.8125 47.609375 11.28125 51.796875 
Q 16.75 56 26.8125 56 
Q 31.78125 56 36.171875 55.265625 
Q 40.578125 54.546875 44.28125 53.078125 
z
" id="DejaVuSans-115"/>
      <path d="M 18.109375 8.203125 
L 18.109375 -20.796875 
L 9.078125 -20.796875 
L 9.078125 54.6875 
L 18.109375 54.6875 
L 18.109375 46.390625 
Q 20.953125 51.265625 25.265625 53.625 
Q 29.59375 56 35.59375 56 
Q 45.5625 56 51.78125 48.09375 
Q 58.015625 40.1875 58.015625 27.296875 
Q 58.015625 14.40625 51.78125 6.484375 
Q 45.5625 -1.421875 35.59375 -1.421875 
Q 29.59375 -1.421875 25.265625 0.953125 
Q 20.953125 3.328125 18.109375 8.203125 
z
M 48.6875 27.296875 
Q 48.6875 37.203125 44.609375 42.84375 
Q 40.53125 48.484375 33.40625 48.484375 
Q 26.265625 48.484375 22.1875 42.84375 
Q 18.109375 37.203125 18.109375 27.296875 
Q 18.109375 17.390625 22.1875 11.75 
Q 26.265625 6.109375 33.40625 6.109375 
Q 40.53125 6.109375 44.609375 11.75 
Q 48.6875 17.390625 48.6875 27.296875 
z
" id="DejaVuSans-112"/>
      <path d="M 56.203125 29.59375 
L 56.203125 25.203125 
L 14.890625 25.203125 
Q 15.484375 15.921875 20.484375 11.0625 
Q 25.484375 6.203125 34.421875 6.203125 
Q 39.59375 6.203125 44.453125 7.46875 
Q 49.3125 8.734375 54.109375 11.28125 
L 54.109375 2.78125 
Q 49.265625 0.734375 44.1875 -0.34375 
Q 39.109375 -1.421875 33.890625 -1.421875 
Q 20.796875 -1.421875 13.15625 6.1875 
Q 5.515625 13.8125 5.515625 26.8125 
Q 5.515625 40.234375 12.765625 48.109375 
Q 20.015625 56 32.328125 56 
Q 43.359375 56 49.78125 48.890625 
Q 56.203125 41.796875 56.203125 29.59375 
z
M 47.21875 32.234375 
Q 47.125 39.59375 43.09375 43.984375 
Q 39.0625 48.390625 32.421875 48.390625 
Q 24.90625 48.390625 20.390625 44.140625 
Q 15.875 39.890625 15.1875 32.171875 
z
" id="DejaVuSans-101"/>
     </defs>
     <g transform="translate(209.8 130.972287)scale(0.1 -0.1)">
      <use xlink:href="#DejaVuSans-115"/>
      <use x="52.099609" xlink:href="#DejaVuSans-112"/>
      <use x="115.576172" xlink:href="#DejaVuSans-108"/>
      <use x="143.359375" xlink:href="#DejaVuSans-105"/>
      <use x="171.142578" xlink:href="#DejaVuSans-110"/>
      <use x="234.521484" xlink:href="#DejaVuSans-101"/>
     </g>
    </g>
   </g>
  </g>
 </g>
 <defs>
  <clipPath id="pf92d732033">
   <rect height="545.5296" width="1071.36" x="172.8" y="85.0176"/>
  </clipPath>
 </defs>
</svg>
