<?xml version="1.0" encoding="utf-8" standalone="no"?>
<!DOCTYPE svg PUBLIC "-//W3C//DTD SVG 1.1//EN"
  "http://www.w3.org/Graphics/SVG/1.1/DTD/svg11.dtd">
<!-- Created with matplotlib (https://matplotlib.org/) -->
<svg height="708.48pt" version="1.1" viewBox="0 0 1382.4 708.48" width="1382.4pt" xmlns="http://www.w3.org/2000/svg" xmlns:xlink="http://www.w3.org/1999/xlink">
 <defs>
  <style type="text/css">
*{stroke-linecap:butt;stroke-linejoin:round;}
  </style>
 </defs>
 <g id="figure_1">
  <g id="patch_1">
   <path d="M 0 708.48 
L 1382.4 708.48 
L 1382.4 0 
L 0 0 
z
" style="fill:#ffffff;"/>
  </g>
  <g id="axes_1">
   <g id="patch_2">
    <path d="M 172.8 630.5472 
L 1244.16 630.5472 
L 1244.16 85.0176 
L 172.8 85.0176 
z
" style="fill:#ffffff;"/>
   </g>
   <g id="matplotlib.axis_1">
    <g id="xtick_1">
     <g id="line2d_1">
      <defs>
       <path d="M 0 0 
L 0 3.5 
" id="ma7eb465f70" style="stroke:#000000;stroke-width:0.8;"/>
      </defs>
      <g>
       <use style="stroke:#000000;stroke-width:0.8;" x="221.001316" xlink:href="#ma7eb465f70" y="630.5472"/>
      </g>
     </g>
     <g id="text_1">
      <!-- 0 -->
      <defs>
       <path d="M 31.78125 66.40625 
Q 24.171875 66.40625 20.328125 58.90625 
Q 16.5 51.421875 16.5 36.375 
Q 16.5 21.390625 20.328125 13.890625 
Q 24.171875 6.390625 31.78125 6.390625 
Q 39.453125 6.390625 43.28125 13.890625 
Q 47.125 21.390625 47.125 36.375 
Q 47.125 51.421875 43.28125 58.90625 
Q 39.453125 66.40625 31.78125 66.40625 
z
M 31.78125 74.21875 
Q 44.046875 74.21875 50.515625 64.515625 
Q 56.984375 54.828125 56.984375 36.375 
Q 56.984375 17.96875 50.515625 8.265625 
Q 44.046875 -1.421875 31.78125 -1.421875 
Q 19.53125 -1.421875 13.0625 8.265625 
Q 6.59375 17.96875 6.59375 36.375 
Q 6.59375 54.828125 13.0625 64.515625 
Q 19.53125 74.21875 31.78125 74.21875 
z
" id="DejaVuSans-48"/>
      </defs>
      <g transform="translate(217.820066 645.145638)scale(0.1 -0.1)">
       <use xlink:href="#DejaVuSans-48"/>
      </g>
     </g>
    </g>
    <g id="xtick_2">
     <g id="line2d_2">
      <g>
       <use style="stroke:#000000;stroke-width:0.8;" x="356.318091" xlink:href="#ma7eb465f70" y="630.5472"/>
      </g>
     </g>
     <g id="text_2">
      <!-- 50 -->
      <defs>
       <path d="M 10.796875 72.90625 
L 49.515625 72.90625 
L 49.515625 64.59375 
L 19.828125 64.59375 
L 19.828125 46.734375 
Q 21.96875 47.46875 24.109375 47.828125 
Q 26.265625 48.1875 28.421875 48.1875 
Q 40.625 48.1875 47.75 41.5 
Q 54.890625 34.8125 54.890625 23.390625 
Q 54.890625 11.625 47.5625 5.09375 
Q 40.234375 -1.421875 26.90625 -1.421875 
Q 22.3125 -1.421875 17.546875 -0.640625 
Q 12.796875 0.140625 7.71875 1.703125 
L 7.71875 11.625 
Q 12.109375 9.234375 16.796875 8.0625 
Q 21.484375 6.890625 26.703125 6.890625 
Q 35.15625 6.890625 40.078125 11.328125 
Q 45.015625 15.765625 45.015625 23.390625 
Q 45.015625 31 40.078125 35.4375 
Q 35.15625 39.890625 26.703125 39.890625 
Q 22.75 39.890625 18.8125 39.015625 
Q 14.890625 38.140625 10.796875 36.28125 
z
" id="DejaVuSans-53"/>
      </defs>
      <g transform="translate(349.955591 645.145638)scale(0.1 -0.1)">
       <use xlink:href="#DejaVuSans-53"/>
       <use x="63.623047" xlink:href="#DejaVuSans-48"/>
      </g>
     </g>
    </g>
    <g id="xtick_3">
     <g id="line2d_3">
      <g>
       <use style="stroke:#000000;stroke-width:0.8;" x="491.634867" xlink:href="#ma7eb465f70" y="630.5472"/>
      </g>
     </g>
     <g id="text_3">
      <!-- 100 -->
      <defs>
       <path d="M 12.40625 8.296875 
L 28.515625 8.296875 
L 28.515625 63.921875 
L 10.984375 60.40625 
L 10.984375 69.390625 
L 28.421875 72.90625 
L 38.28125 72.90625 
L 38.28125 8.296875 
L 54.390625 8.296875 
L 54.390625 0 
L 12.40625 0 
z
" id="DejaVuSans-49"/>
      </defs>
      <g transform="translate(482.091117 645.145638)scale(0.1 -0.1)">
       <use xlink:href="#DejaVuSans-49"/>
       <use x="63.623047" xlink:href="#DejaVuSans-48"/>
       <use x="127.246094" xlink:href="#DejaVuSans-48"/>
      </g>
     </g>
    </g>
    <g id="xtick_4">
     <g id="line2d_4">
      <g>
       <use style="stroke:#000000;stroke-width:0.8;" x="626.951643" xlink:href="#ma7eb465f70" y="630.5472"/>
      </g>
     </g>
     <g id="text_4">
      <!-- 150 -->
      <g transform="translate(617.407893 645.145638)scale(0.1 -0.1)">
       <use xlink:href="#DejaVuSans-49"/>
       <use x="63.623047" xlink:href="#DejaVuSans-53"/>
       <use x="127.246094" xlink:href="#DejaVuSans-48"/>
      </g>
     </g>
    </g>
    <g id="xtick_5">
     <g id="line2d_5">
      <g>
       <use style="stroke:#000000;stroke-width:0.8;" x="762.268418" xlink:href="#ma7eb465f70" y="630.5472"/>
      </g>
     </g>
     <g id="text_5">
      <!-- 200 -->
      <defs>
       <path d="M 19.1875 8.296875 
L 53.609375 8.296875 
L 53.609375 0 
L 7.328125 0 
L 7.328125 8.296875 
Q 12.9375 14.109375 22.625 23.890625 
Q 32.328125 33.6875 34.8125 36.53125 
Q 39.546875 41.84375 41.421875 45.53125 
Q 43.3125 49.21875 43.3125 52.78125 
Q 43.3125 58.59375 39.234375 62.25 
Q 35.15625 65.921875 28.609375 65.921875 
Q 23.96875 65.921875 18.8125 64.3125 
Q 13.671875 62.703125 7.8125 59.421875 
L 7.8125 69.390625 
Q 13.765625 71.78125 18.9375 73 
Q 24.125 74.21875 28.421875 74.21875 
Q 39.75 74.21875 46.484375 68.546875 
Q 53.21875 62.890625 53.21875 53.421875 
Q 53.21875 48.921875 51.53125 44.890625 
Q 49.859375 40.875 45.40625 35.40625 
Q 44.1875 33.984375 37.640625 27.21875 
Q 31.109375 20.453125 19.1875 8.296875 
z
" id="DejaVuSans-50"/>
      </defs>
      <g transform="translate(752.724668 645.145638)scale(0.1 -0.1)">
       <use xlink:href="#DejaVuSans-50"/>
       <use x="63.623047" xlink:href="#DejaVuSans-48"/>
       <use x="127.246094" xlink:href="#DejaVuSans-48"/>
      </g>
     </g>
    </g>
    <g id="xtick_6">
     <g id="line2d_6">
      <g>
       <use style="stroke:#000000;stroke-width:0.8;" x="897.585194" xlink:href="#ma7eb465f70" y="630.5472"/>
      </g>
     </g>
     <g id="text_6">
      <!-- 250 -->
      <g transform="translate(888.041444 645.145638)scale(0.1 -0.1)">
       <use xlink:href="#DejaVuSans-50"/>
       <use x="63.623047" xlink:href="#DejaVuSans-53"/>
       <use x="127.246094" xlink:href="#DejaVuSans-48"/>
      </g>
     </g>
    </g>
    <g id="xtick_7">
     <g id="line2d_7">
      <g>
       <use style="stroke:#000000;stroke-width:0.8;" x="1032.90197" xlink:href="#ma7eb465f70" y="630.5472"/>
      </g>
     </g>
     <g id="text_7">
      <!-- 300 -->
      <defs>
       <path d="M 40.578125 39.3125 
Q 47.65625 37.796875 51.625 33 
Q 55.609375 28.21875 55.609375 21.1875 
Q 55.609375 10.40625 48.1875 4.484375 
Q 40.765625 -1.421875 27.09375 -1.421875 
Q 22.515625 -1.421875 17.65625 -0.515625 
Q 12.796875 0.390625 7.625 2.203125 
L 7.625 11.71875 
Q 11.71875 9.328125 16.59375 8.109375 
Q 21.484375 6.890625 26.8125 6.890625 
Q 36.078125 6.890625 40.9375 10.546875 
Q 45.796875 14.203125 45.796875 21.1875 
Q 45.796875 27.640625 41.28125 31.265625 
Q 36.765625 34.90625 28.71875 34.90625 
L 20.21875 34.90625 
L 20.21875 43.015625 
L 29.109375 43.015625 
Q 36.375 43.015625 40.234375 45.921875 
Q 44.09375 48.828125 44.09375 54.296875 
Q 44.09375 59.90625 40.109375 62.90625 
Q 36.140625 65.921875 28.71875 65.921875 
Q 24.65625 65.921875 20.015625 65.03125 
Q 15.375 64.15625 9.8125 62.3125 
L 9.8125 71.09375 
Q 15.4375 72.65625 20.34375 73.4375 
Q 25.25 74.21875 29.59375 74.21875 
Q 40.828125 74.21875 47.359375 69.109375 
Q 53.90625 64.015625 53.90625 55.328125 
Q 53.90625 49.265625 50.4375 45.09375 
Q 46.96875 40.921875 40.578125 39.3125 
z
" id="DejaVuSans-51"/>
      </defs>
      <g transform="translate(1023.35822 645.145638)scale(0.1 -0.1)">
       <use xlink:href="#DejaVuSans-51"/>
       <use x="63.623047" xlink:href="#DejaVuSans-48"/>
       <use x="127.246094" xlink:href="#DejaVuSans-48"/>
      </g>
     </g>
    </g>
    <g id="xtick_8">
     <g id="line2d_8">
      <g>
       <use style="stroke:#000000;stroke-width:0.8;" x="1168.218745" xlink:href="#ma7eb465f70" y="630.5472"/>
      </g>
     </g>
     <g id="text_8">
      <!-- 350 -->
      <g transform="translate(1158.674995 645.145638)scale(0.1 -0.1)">
       <use xlink:href="#DejaVuSans-51"/>
       <use x="63.623047" xlink:href="#DejaVuSans-53"/>
       <use x="127.246094" xlink:href="#DejaVuSans-48"/>
      </g>
     </g>
    </g>
   </g>
   <g id="matplotlib.axis_2">
    <g id="ytick_1">
     <g id="line2d_9">
      <defs>
       <path d="M 0 0 
L -3.5 0 
" id="m816639e92e" style="stroke:#000000;stroke-width:0.8;"/>
      </defs>
      <g>
       <use style="stroke:#000000;stroke-width:0.8;" x="172.8" xlink:href="#m816639e92e" y="613.425455"/>
      </g>
     </g>
     <g id="text_9">
      <!-- 0.150 -->
      <defs>
       <path d="M 10.6875 12.40625 
L 21 12.40625 
L 21 0 
L 10.6875 0 
z
" id="DejaVuSans-46"/>
      </defs>
      <g transform="translate(137.171875 617.224673)scale(0.1 -0.1)">
       <use xlink:href="#DejaVuSans-48"/>
       <use x="63.623047" xlink:href="#DejaVuSans-46"/>
       <use x="95.410156" xlink:href="#DejaVuSans-49"/>
       <use x="159.033203" xlink:href="#DejaVuSans-53"/>
       <use x="222.65625" xlink:href="#DejaVuSans-48"/>
      </g>
     </g>
    </g>
    <g id="ytick_2">
     <g id="line2d_10">
      <g>
       <use style="stroke:#000000;stroke-width:0.8;" x="172.8" xlink:href="#m816639e92e" y="548.924069"/>
      </g>
     </g>
     <g id="text_10">
      <!-- 0.175 -->
      <defs>
       <path d="M 8.203125 72.90625 
L 55.078125 72.90625 
L 55.078125 68.703125 
L 28.609375 0 
L 18.3125 0 
L 43.21875 64.59375 
L 8.203125 64.59375 
z
" id="DejaVuSans-55"/>
      </defs>
      <g transform="translate(137.171875 552.723288)scale(0.1 -0.1)">
       <use xlink:href="#DejaVuSans-48"/>
       <use x="63.623047" xlink:href="#DejaVuSans-46"/>
       <use x="95.410156" xlink:href="#DejaVuSans-49"/>
       <use x="159.033203" xlink:href="#DejaVuSans-55"/>
       <use x="222.65625" xlink:href="#DejaVuSans-53"/>
      </g>
     </g>
    </g>
    <g id="ytick_3">
     <g id="line2d_11">
      <g>
       <use style="stroke:#000000;stroke-width:0.8;" x="172.8" xlink:href="#m816639e92e" y="484.422683"/>
      </g>
     </g>
     <g id="text_11">
      <!-- 0.200 -->
      <g transform="translate(137.171875 488.221902)scale(0.1 -0.1)">
       <use xlink:href="#DejaVuSans-48"/>
       <use x="63.623047" xlink:href="#DejaVuSans-46"/>
       <use x="95.410156" xlink:href="#DejaVuSans-50"/>
       <use x="159.033203" xlink:href="#DejaVuSans-48"/>
       <use x="222.65625" xlink:href="#DejaVuSans-48"/>
      </g>
     </g>
    </g>
    <g id="ytick_4">
     <g id="line2d_12">
      <g>
       <use style="stroke:#000000;stroke-width:0.8;" x="172.8" xlink:href="#m816639e92e" y="419.921298"/>
      </g>
     </g>
     <g id="text_12">
      <!-- 0.225 -->
      <g transform="translate(137.171875 423.720517)scale(0.1 -0.1)">
       <use xlink:href="#DejaVuSans-48"/>
       <use x="63.623047" xlink:href="#DejaVuSans-46"/>
       <use x="95.410156" xlink:href="#DejaVuSans-50"/>
       <use x="159.033203" xlink:href="#DejaVuSans-50"/>
       <use x="222.65625" xlink:href="#DejaVuSans-53"/>
      </g>
     </g>
    </g>
    <g id="ytick_5">
     <g id="line2d_13">
      <g>
       <use style="stroke:#000000;stroke-width:0.8;" x="172.8" xlink:href="#m816639e92e" y="355.419912"/>
      </g>
     </g>
     <g id="text_13">
      <!-- 0.250 -->
      <g transform="translate(137.171875 359.219131)scale(0.1 -0.1)">
       <use xlink:href="#DejaVuSans-48"/>
       <use x="63.623047" xlink:href="#DejaVuSans-46"/>
       <use x="95.410156" xlink:href="#DejaVuSans-50"/>
       <use x="159.033203" xlink:href="#DejaVuSans-53"/>
       <use x="222.65625" xlink:href="#DejaVuSans-48"/>
      </g>
     </g>
    </g>
    <g id="ytick_6">
     <g id="line2d_14">
      <g>
       <use style="stroke:#000000;stroke-width:0.8;" x="172.8" xlink:href="#m816639e92e" y="290.918527"/>
      </g>
     </g>
     <g id="text_14">
      <!-- 0.275 -->
      <g transform="translate(137.171875 294.717745)scale(0.1 -0.1)">
       <use xlink:href="#DejaVuSans-48"/>
       <use x="63.623047" xlink:href="#DejaVuSans-46"/>
       <use x="95.410156" xlink:href="#DejaVuSans-50"/>
       <use x="159.033203" xlink:href="#DejaVuSans-55"/>
       <use x="222.65625" xlink:href="#DejaVuSans-53"/>
      </g>
     </g>
    </g>
    <g id="ytick_7">
     <g id="line2d_15">
      <g>
       <use style="stroke:#000000;stroke-width:0.8;" x="172.8" xlink:href="#m816639e92e" y="226.417141"/>
      </g>
     </g>
     <g id="text_15">
      <!-- 0.300 -->
      <g transform="translate(137.171875 230.21636)scale(0.1 -0.1)">
       <use xlink:href="#DejaVuSans-48"/>
       <use x="63.623047" xlink:href="#DejaVuSans-46"/>
       <use x="95.410156" xlink:href="#DejaVuSans-51"/>
       <use x="159.033203" xlink:href="#DejaVuSans-48"/>
       <use x="222.65625" xlink:href="#DejaVuSans-48"/>
      </g>
     </g>
    </g>
    <g id="ytick_8">
     <g id="line2d_16">
      <g>
       <use style="stroke:#000000;stroke-width:0.8;" x="172.8" xlink:href="#m816639e92e" y="161.915755"/>
      </g>
     </g>
     <g id="text_16">
      <!-- 0.325 -->
      <g transform="translate(137.171875 165.714974)scale(0.1 -0.1)">
       <use xlink:href="#DejaVuSans-48"/>
       <use x="63.623047" xlink:href="#DejaVuSans-46"/>
       <use x="95.410156" xlink:href="#DejaVuSans-51"/>
       <use x="159.033203" xlink:href="#DejaVuSans-50"/>
       <use x="222.65625" xlink:href="#DejaVuSans-53"/>
      </g>
     </g>
    </g>
    <g id="ytick_9">
     <g id="line2d_17">
      <g>
       <use style="stroke:#000000;stroke-width:0.8;" x="172.8" xlink:href="#m816639e92e" y="97.41437"/>
      </g>
     </g>
     <g id="text_17">
      <!-- 0.350 -->
      <g transform="translate(137.171875 101.213588)scale(0.1 -0.1)">
       <use xlink:href="#DejaVuSans-48"/>
       <use x="63.623047" xlink:href="#DejaVuSans-46"/>
       <use x="95.410156" xlink:href="#DejaVuSans-51"/>
       <use x="159.033203" xlink:href="#DejaVuSans-53"/>
       <use x="222.65625" xlink:href="#DejaVuSans-48"/>
      </g>
     </g>
    </g>
   </g>
   <g id="line2d_18">
    <path clip-path="url(#p52bcaba80b)" d="M 234.173415 195.399338 
L 241.975188 158.298669 
L 249.988391 126.465315 
L 265.317079 132.795844 
L 273.287996 157.671948 
L 288.817542 154.308006 
L 311.218568 183.263371 
L 331.431292 152.124091 
L 352.37345 186.443716 
L 383.347969 219.666969 
L 393.475474 306.903745 
L 410.738747 409.611288 
L 426.099149 369.618616 
L 438.256384 377.668213 
L 455.413942 375.3387 
L 470.54177 424.763303 
L 481.102707 400.847167 
L 491.431071 281.204368 
L 506.971188 207.644583 
L 529.06564 144.818581 
L 565.484487 125.542892 
L 593.953559 123.567456 
L 634.886439 111.380027 
L 712.629312 109.8144 
L 733.529184 200.165427 
L 744.851269 307.39963 
L 756.902789 362.687852 
L 773.256912 397.851023 
L 786.915301 321.498506 
L 800.975407 305.432596 
L 815.257515 183.455295 
L 850.111778 174.245237 
L 870.366788 176.87831 
L 879.585143 258.375993 
L 890.621798 343.76901 
L 902.662746 367.151883 
L 912.821965 393.490507 
L 939.197879 296.332232 
L 947.211082 291.21405 
L 957.1483 279.360889 
L 968.998961 327.610254 
L 984.570792 415.149351 
L 1019.816201 487.233027 
L 1038.538343 605.7504 
L 1057.355628 573.723963 
L 1070.379726 515.179509 
L 1083.107822 368.062234 
L 1104.990844 339.45595 
L 1134.464209 281.172739 
L 1164.476722 326.168086 
L 1194.774665 307.669528 
" style="fill:none;stroke:#1f77b4;stroke-linecap:square;stroke-width:1.5;"/>
   </g>
   <g id="line2d_19">
    <path clip-path="url(#p52bcaba80b)" d="M 221.498182 235.664074 
L 222.354483 234.606562 
L 223.316501 233.046728 
L 224.405378 230.835438 
L 225.631686 227.819681 
L 227.027141 223.771276 
L 228.623456 218.424655 
L 230.462918 211.452491 
L 232.661816 202.200562 
L 235.484439 189.292102 
L 245.273762 143.657872 
L 247.430373 135.114594 
L 249.248692 128.777139 
L 250.252997 125.901192 
L 251.38416 123.806697 
L 252.430751 122.31379 
L 253.40334 121.295698 
L 254.3125 120.654218 
L 255.168801 120.314682 
L 255.993388 120.222144 
L 256.817975 120.351809 
L 257.684848 120.719265 
L 258.604579 121.358339 
L 259.608883 122.336896 
L 260.718904 123.743114 
L 261.945212 125.671071 
L 263.308951 128.246781 
L 264.831265 131.617599 
L 265.70871 133.983428 
L 268.721622 143.551027 
L 272.527407 155.482951 
L 273.489424 157.966857 
L 274.56773 159.316398 
L 275.603749 160.269293 
L 276.597481 160.89162 
L 277.580642 161.249462 
L 278.563803 161.373485 
L 279.589251 161.278128 
L 280.699271 160.945578 
L 281.925579 160.339152 
L 283.352749 159.373897 
L 285.107638 157.901839 
L 287.79283 155.317664 
L 288.818278 154.30877 
L 288.881707 154.37477 
L 290.700027 156.433704 
L 292.846066 159.216173 
L 295.584117 163.156391 
L 305.109149 177.195157 
L 307.212902 179.722891 
L 308.999506 181.536349 
L 310.564106 182.820821 
L 311.272405 183.19747 
L 313.027295 180.867416 
L 315.109904 177.714438 
L 317.795097 173.216825 
L 326.548401 158.23576 
L 328.609867 155.317137 
L 330.354185 153.217588 
L 331.474777 152.147646 
L 332.764515 152.977765 
L 334.159969 154.149938 
L 335.671711 155.718638 
L 337.342028 157.783561 
L 339.192062 160.437018 
L 341.2641 163.810489 
L 343.642715 168.124721 
L 346.465338 173.72621 
L 350.175978 181.621707 
L 352.374876 186.44283 
L 352.47002 186.38327 
L 354.394056 185.040151 
L 357.660687 182.435282 
L 360.589027 180.214419 
L 362.407346 179.106437 
L 363.897945 178.449419 
L 365.198255 178.113559 
L 366.371705 178.036321 
L 367.471154 178.186357 
L 368.528316 178.557317 
L 369.574907 179.165591 
L 370.632069 180.045491 
L 371.710374 181.240819 
L 372.830966 182.826861 
L 373.993845 184.87126 
L 375.209582 187.474266 
L 376.478176 190.733982 
L 377.799629 194.760606 
L 379.184512 199.718254 
L 380.622253 205.716629 
L 382.123423 212.9651 
L 383.413161 220.206108 
L 387.218946 252.626791 
L 395.137091 320.49005 
L 398.128861 343.642286 
L 400.623764 361.28382 
L 402.790946 375.080348 
L 404.70441 385.883018 
L 406.406441 394.268233 
L 407.928755 400.694626 
L 409.281923 405.487352 
L 410.487088 408.97864 
L 410.740807 409.609574 
L 410.814808 409.546606 
L 411.60768 408.708409 
L 412.51684 407.402462 
L 413.574002 405.469494 
L 414.810882 402.719531 
L 416.312052 398.807165 
L 418.257231 393.067142 
L 425.435363 371.252841 
L 426.19652 369.603004 
L 427.232539 369.559251 
L 428.321416 369.737563 
L 429.505438 370.163258 
L 430.816319 370.877994 
L 432.338633 371.97245 
L 434.199239 373.599554 
L 436.979575 376.364598 
L 438.364458 377.636252 
L 440.161634 376.981054 
L 442.815111 375.747623 
L 446.420035 374.105996 
L 448.227782 373.533069 
L 449.718381 373.287697 
L 451.029263 373.292011 
L 452.244999 373.516933 
L 453.397306 373.956328 
L 454.52847 374.628759 
L 455.427058 375.386138 
L 457.837388 384.524212 
L 464.127504 408.74022 
L 465.966966 414.7428 
L 467.457565 418.891313 
L 468.715588 421.775253 
L 469.793894 423.725292 
L 470.671338 424.893067 
L 471.453638 425.497303 
L 472.140794 425.763982 
L 472.775091 425.779644 
L 473.398817 425.569483 
L 474.043686 425.107054 
L 474.730842 424.328551 
L 475.481427 423.126886 
L 476.306013 421.36509 
L 477.204601 418.894126 
L 478.177191 415.540566 
L 479.223781 411.103755 
L 480.344373 405.35274 
L 481.211247 399.853756 
L 482.807562 384.137953 
L 484.763312 362.55792 
L 487.490791 329.751853 
L 491.708868 278.967825 
L 493.506044 265.534022 
L 495.271505 253.975274 
L 497.005251 244.060328 
L 498.717854 235.525881 
L 500.419886 228.150532 
L 502.121917 221.745537 
L 503.845092 216.114087 
L 505.621124 211.063547 
L 507.354871 206.154348 
L 510.314925 195.1585 
L 513.200978 185.276603 
L 516.01303 176.424943 
L 518.761652 168.49536 
L 521.436273 161.447647 
L 524.036892 155.211224 
L 526.56351 149.719655 
L 529.016126 144.910469 
L 530.062717 143.198368 
L 532.261615 139.929759 
L 534.428797 137.099365 
L 536.574837 134.656654 
L 538.699733 132.569231 
L 540.824629 130.789833 
L 542.949525 129.296977 
L 545.095565 128.05822 
L 547.283891 127.050514 
L 549.535647 126.258301 
L 551.882547 125.669426 
L 554.366878 125.277696 
L 557.052071 125.08324 
L 560.04384 125.094975 
L 563.585334 125.340401 
L 565.985092 125.459617 
L 570.425174 124.84768 
L 575.488981 124.380451 
L 581.86367 124.028218 
L 594.866767 123.374722 
L 600.61773 122.027705 
L 607.06642 120.28317 
L 614.730846 117.970087 
L 625.746478 114.387542 
L 635.049506 111.191863 
L 636.38153 109.8144 
L 712.687506 109.913254 
L 714.125247 112.582409 
L 715.626417 115.848664 
L 717.191017 119.79683 
L 718.829619 124.552882 
L 720.53165 130.195269 
L 722.297111 136.836895 
L 724.126002 144.600998 
L 726.028894 153.675125 
L 727.995216 164.164317 
L 730.024968 176.228369 
L 732.118149 190.040355 
L 733.693321 201.748671 
L 744.011225 300.33778 
L 745.269248 310.156219 
L 747.17214 321.810628 
L 749.053889 331.984666 
L 750.914495 340.845436 
L 752.764529 348.592804 
L 754.614563 355.398112 
L 756.475169 361.411138 
L 757.183468 363.906098 
L 759.636084 374.011398 
L 761.655264 381.428064 
L 763.378439 386.949269 
L 764.879609 391.048697 
L 766.201062 394.040498 
L 767.363941 396.148409 
L 768.378816 397.554856 
L 769.277405 398.441506 
L 770.070276 398.929261 
L 770.789146 399.122067 
L 771.46573 399.078383 
L 772.142314 398.808612 
L 772.850613 398.275691 
L 773.28405 397.737201 
L 774.774649 390.992854 
L 776.561253 381.818512 
L 778.855295 368.789681 
L 787.006016 321.36636 
L 788.147752 319.915955 
L 789.352917 318.743455 
L 790.727228 317.723326 
L 792.926125 316.416809 
L 794.829017 315.180792 
L 796.097612 314.08564 
L 797.218204 312.822513 
L 798.29651 311.26263 
L 799.353672 309.331643 
L 800.421406 306.904717 
L 801.03456 305.066274 
L 802.704877 293.999146 
L 804.628912 279.691129 
L 806.880668 261.198799 
L 809.671576 236.329861 
L 813.953084 195.904166 
L 815.475397 182.380924 
L 817.092856 175.033101 
L 818.646884 168.976888 
L 820.126912 164.074784 
L 821.532937 160.158222 
L 822.875534 157.055442 
L 824.144128 154.664633 
L 825.338722 152.867783 
L 826.469885 151.550715 
L 827.548191 150.624433 
L 828.58421 150.020661 
L 829.588514 149.688234 
L 830.582247 149.590317 
L 831.597123 149.713219 
L 832.664857 150.069773 
L 833.817163 150.696769 
L 835.075187 151.643862 
L 836.470641 152.982304 
L 838.056384 154.824229 
L 839.895847 157.318045 
L 842.126459 160.737491 
L 845.245088 165.965938 
L 850.108035 174.23915 
L 850.129178 174.189927 
L 852.243503 167.839854 
L 853.98782 163.27154 
L 855.478419 159.963699 
L 856.768157 157.617552 
L 857.888749 156.014964 
L 858.87191 154.97416 
L 859.738783 154.36102 
L 860.521083 154.067929 
L 861.250525 154.028828 
L 861.958824 154.217263 
L 862.677694 154.646522 
L 863.438851 155.37343 
L 864.252866 156.474047 
L 865.130311 158.050883 
L 866.081757 160.23911 
L 867.107205 163.180816 
L 868.206653 167.039224 
L 869.380104 172.000964 
L 870.426694 177.342087 
L 872.625592 195.259985 
L 875.47993 220.479956 
L 883.450934 292.005203 
L 886.125555 313.404419 
L 888.324452 329.283018 
L 890.206201 341.327139 
L 890.903928 344.833168 
L 892.235953 349.333636 
L 893.546834 353.004226 
L 894.868287 356.059269 
L 896.221455 358.63809 
L 897.669767 360.923297 
L 899.38237 363.198033 
L 902.839291 367.647076 
L 909.372554 385.665879 
L 911.444592 390.607726 
L 912.829474 393.485096 
L 912.850618 393.469702 
L 913.58006 392.795185 
L 914.394075 391.724889 
L 915.324378 390.114978 
L 916.38154 387.819224 
L 917.586705 384.64782 
L 918.971588 380.350781 
L 920.578474 374.608004 
L 922.491938 366.902105 
L 924.91284 356.165675 
L 929.078059 336.475631 
L 932.746412 319.580764 
L 935.029883 310.078683 
L 936.858774 303.371666 
L 938.412802 298.478218 
L 939.300819 296.252468 
L 941.372857 294.795362 
L 944.58663 292.848305 
L 947.250679 291.150059 
L 953.096787 281.899211 
L 954.29138 280.601476 
L 955.274541 279.841359 
L 956.120271 279.452708 
L 956.870856 279.341483 
L 957.198577 279.451597 
L 958.171166 281.450836 
L 959.270615 284.246796 
L 960.518066 288.059755 
L 961.924092 293.104423 
L 963.530979 299.736946 
L 965.381013 308.364538 
L 967.558767 319.635417 
L 976.142925 366.683397 
L 984.938516 416.363722 
L 986.830836 422.154921 
L 988.723157 427.243198 
L 990.647192 431.786346 
L 992.624086 435.888453 
L 994.706696 439.69854 
L 996.990166 443.409254 
L 999.759931 447.469949 
L 1007.878938 459.100404 
L 1010.098979 462.857898 
L 1012.107587 466.697055 
L 1014.010479 470.817608 
L 1015.860513 475.360835 
L 1017.689404 480.453557 
L 1019.507723 486.188151 
L 1019.898873 487.853439 
L 1026.981861 540.174691 
L 1030.015917 560.821157 
L 1032.479105 576.11738 
L 1034.593429 587.90275 
L 1036.443464 597.006134 
L 1038.082065 603.997846 
L 1038.631789 605.7504 
L 1046.000211 605.641117 
L 1047.089088 604.003002 
L 1048.304825 601.754213 
L 1049.657992 598.762093 
L 1051.159163 594.883343 
L 1052.840051 589.902559 
L 1054.732371 583.574797 
L 1056.888983 575.557791 
L 1057.650139 573.02889 
L 1059.183025 569.072621 
L 1060.705338 564.516347 
L 1062.238224 559.206841 
L 1063.781681 553.037724 
L 1065.346281 545.846761 
L 1066.942596 537.438072 
L 1068.570626 527.641894 
L 1070.240942 516.197529 
L 1070.663807 512.302174 
L 1072.873277 488.615101 
L 1075.801616 454.625285 
L 1083.233467 367.257863 
L 1084.702923 358.628854 
L 1086.108949 351.656274 
L 1087.440973 346.134866 
L 1088.698996 341.825985 
L 1089.89359 338.495325 
L 1091.014182 336.000085 
L 1092.071344 334.166877 
L 1093.054505 332.88517 
L 1093.984808 332.022382 
L 1094.862253 331.499138 
L 1095.718554 331.241334 
L 1096.574856 331.21495 
L 1097.462872 331.412585 
L 1098.42489 331.861966 
L 1099.492624 332.616714 
L 1100.70836 333.760506 
L 1102.146101 335.435527 
L 1103.932705 337.88033 
L 1104.989868 339.454467 
L 1105.053297 339.321003 
L 1109.123372 330.25679 
L 1121.280739 302.84237 
L 1124.431082 296.476581 
L 1127.105703 291.556696 
L 1129.452604 287.690856 
L 1131.545785 284.656881 
L 1133.438105 282.291911 
L 1134.516411 281.207644 
L 1136.049296 282.371855 
L 1137.719613 283.928912 
L 1139.559075 285.957853 
L 1141.60997 288.56215 
L 1143.946299 291.902026 
L 1146.694921 296.236294 
L 1150.225843 302.24787 
L 1161.368334 321.526305 
L 1164.095812 325.631533 
L 1166.410998 328.73016 
L 1168.451321 331.101561 
L 1170.26964 332.886142 
L 1171.918813 334.203963 
L 1173.430556 335.135891 
L 1174.82601 335.742516 
L 1176.136891 336.075018 
L 1177.384343 336.164781 
L 1178.589508 336.030007 
L 1179.784101 335.670716 
L 1180.978695 335.076043 
L 1182.194431 334.218187 
L 1183.441883 333.061321 
L 1184.742192 331.544208 
L 1186.09536 329.613532 
L 1187.501386 327.210845 
L 1188.970842 324.249219 
L 1190.503727 320.647912 
L 1192.110614 316.287439 
L 1193.78093 311.092397 
L 1195.461818 305.153723 
L 1195.461818 305.153723 
" style="fill:none;stroke:#ff7f0e;stroke-linecap:square;stroke-width:1.5;"/>
   </g>
   <g id="line2d_20">
    <path clip-path="url(#p52bcaba80b)" d="M 221.498182 234.237475 
L 222.132479 233.912302 
L 222.830206 233.288979 
L 223.612506 232.275131 
L 224.511094 230.723098 
L 225.536542 228.480604 
L 226.709992 225.350096 
L 228.06316 221.0715 
L 229.638332 215.312141 
L 231.509509 207.583358 
L 233.888124 196.751725 
L 238.296491 175.384889 
L 241.573694 160.064662 
L 243.836021 149.527171 
L 246.732646 135.790743 
L 247.92724 131.226268 
L 248.836399 128.554565 
L 249.565841 127.043794 
L 250.168424 126.273009 
L 251.267872 125.284866 
L 252.325035 124.623467 
L 253.361054 124.23287 
L 254.386501 124.081093 
L 255.433092 124.150477 
L 256.532541 124.448954 
L 257.716563 125.006696 
L 259.016872 125.873022 
L 260.475756 127.122135 
L 262.156644 128.866921 
L 264.175824 131.300454 
L 265.719281 133.447525 
L 266.343007 134.863877 
L 267.14645 137.283755 
L 268.267042 141.43373 
L 271.586532 154.174492 
L 272.42169 156.3367 
L 273.055988 157.418535 
L 273.626855 157.959133 
L 274.493728 158.494989 
L 275.35003 158.769151 
L 276.238046 158.819546 
L 277.200064 158.645777 
L 278.299513 158.212454 
L 279.673824 157.416703 
L 282.158155 155.660508 
L 284.092762 154.425082 
L 285.350785 153.875103 
L 286.386804 153.656435 
L 287.295964 153.686378 
L 288.141694 153.935155 
L 288.976852 154.418398 
L 290.097444 155.351993 
L 291.366039 156.710674 
L 292.835494 158.624392 
L 294.611527 161.322623 
L 296.968999 165.342047 
L 303.364831 176.457762 
L 305.172579 179.043166 
L 306.663178 180.804206 
L 307.942344 181.984853 
L 309.062936 182.727312 
L 310.056669 183.129836 
L 310.9764 183.267183 
L 311.7587 183.170543 
L 312.498713 182.841051 
L 313.3233 182.219026 
L 314.253603 181.225705 
L 315.331908 179.734237 
L 316.611075 177.566799 
L 318.196818 174.416322 
L 320.459146 169.37279 
L 324.677223 159.92272 
L 326.326396 156.809759 
L 327.637278 154.780498 
L 328.736727 153.464366 
L 329.677601 152.666482 
L 330.491616 152.251578 
L 331.221058 152.118106 
L 331.971643 152.213416 
L 332.827945 152.542576 
L 333.758248 153.144159 
L 334.794267 154.088234 
L 335.967717 155.471181 
L 337.320885 157.426765 
L 338.9172 160.146594 
L 340.894093 163.983555 
L 343.811861 170.192804 
L 348.125083 179.32071 
L 350.144263 183.060717 
L 351.75115 185.593789 
L 353.199462 187.46858 
L 354.816921 189.208147 
L 356.497809 190.690732 
L 358.294985 191.97851 
L 360.335308 193.161986 
L 363.062787 194.467107 
L 367.820017 196.722797 
L 369.86034 197.96948 
L 371.625801 199.308622 
L 373.253831 200.822927 
L 374.818432 202.584724 
L 376.351317 204.650934 
L 377.873631 207.082791 
L 379.406516 209.960802 
L 380.949973 213.341366 
L 382.525145 217.340482 
L 383.709167 220.89022 
L 384.322321 223.679046 
L 385.083478 228.257894 
L 386.034924 235.449146 
L 387.261232 246.559968 
L 389.132409 265.826904 
L 391.891603 293.965776 
L 393.160198 304.630933 
L 396.035679 325.267435 
L 402.156649 369.405507 
L 404.270974 382.809786 
L 405.983577 392.3084 
L 407.421317 399.100063 
L 408.658197 403.931078 
L 409.725931 407.254831 
L 410.635091 409.407632 
L 411.27996 410.455583 
L 411.808541 410.916867 
L 412.273692 411.043768 
L 412.7177 410.935904 
L 413.203995 410.577101 
L 413.774863 409.857766 
L 414.462018 408.603004 
L 415.286605 406.602168 
L 416.301481 403.517441 
L 417.60179 398.800953 
L 419.599827 390.59988 
L 422.411879 379.190883 
L 423.754475 374.666895 
L 424.779922 371.931667 
L 425.615081 370.290727 
L 426.302236 369.396691 
L 427.010535 368.829937 
L 427.676547 368.5685 
L 428.342559 368.542146 
L 429.050858 368.741293 
L 429.854302 369.209668 
L 430.816319 370.04445 
L 432.074342 371.455767 
L 436.535567 376.739863 
L 437.487013 377.39091 
L 438.269313 377.670714 
L 439.22076 377.739953 
L 440.246207 377.587334 
L 441.409086 377.181257 
L 442.825683 376.438163 
L 444.992866 375.014447 
L 447.699201 373.291946 
L 449.115799 372.655142 
L 450.268106 372.373494 
L 451.27241 372.351571 
L 452.202713 372.553361 
L 453.090729 372.975047 
L 453.978745 373.648391 
L 454.887905 374.627179 
L 455.76535 375.898617 
L 456.558221 377.491035 
L 457.499096 379.911729 
L 458.640831 383.501277 
L 460.078572 388.805585 
L 462.182325 397.519871 
L 465.787248 412.460669 
L 467.288419 417.69955 
L 468.461869 421.04073 
L 469.423887 423.153077 
L 470.216758 424.396798 
L 470.935629 425.125641 
L 471.781359 425.69362 
L 472.510801 425.925878 
L 473.166241 425.906541 
L 473.800539 425.662313 
L 474.445408 425.167302 
L 475.132563 424.34429 
L 475.872577 423.090467 
L 476.67602 421.264175 
L 477.542893 418.708505 
L 478.473196 415.237485 
L 479.466929 410.632276 
L 480.524091 404.637097 
L 481.538967 397.606427 
L 482.426983 389.639676 
L 483.547575 377.419257 
L 485.059317 358.260938 
L 489.816548 296.180768 
L 490.947711 285.097825 
L 491.962587 277.31292 
L 493.728048 265.447974 
L 495.514653 254.926427 
L 497.343543 245.464164 
L 499.267579 236.669099 
L 501.403047 227.955943 
L 504.109382 217.901484 
L 513.137548 185.822314 
L 516.488753 174.812861 
L 519.258518 166.447107 
L 521.658277 159.878579 
L 523.793744 154.659702 
L 525.707208 150.551897 
L 527.430383 147.361349 
L 528.984411 144.933182 
L 531.045878 142.202573 
L 533.191917 139.71602 
L 535.348529 137.552851 
L 537.536854 135.670513 
L 539.767467 134.043069 
L 542.082652 132.629 
L 544.514126 131.40476 
L 547.14646 130.33082 
L 550.106514 129.368119 
L 553.774867 128.420747 
L 565.139362 125.654405 
L 568.025415 124.850391 
L 570.541462 124.40873 
L 573.353513 124.145366 
L 576.725861 124.062098 
L 582.032816 124.188179 
L 587.424344 124.244905 
L 590.659261 124.055976 
L 593.386739 123.677263 
L 596.494797 122.993317 
L 600.512013 121.887499 
L 605.332673 120.319719 
L 612.637665 117.678482 
L 621.211251 114.633902 
L 625.947339 113.191375 
L 629.890554 112.217372 
L 633.389761 111.577952 
L 641.202191 110.308584 
L 643.982528 109.8144 
L 712.740364 109.917322 
L 713.543808 110.836238 
L 714.442395 112.21653 
L 715.457271 114.2036 
L 716.599006 116.954133 
L 717.878173 120.644237 
L 719.315914 125.503639 
L 720.933372 131.791867 
L 722.762263 139.836018 
L 724.855444 150.091017 
L 727.308061 163.268146 
L 730.373832 181.025743 
L 734.095043 203.887083 
L 735.162777 212.151053 
L 736.505373 224.405646 
L 738.355407 243.542909 
L 742.911777 291.464643 
L 744.296659 303.323551 
L 745.533539 312.017188 
L 747.246142 322.559042 
L 748.969316 331.813365 
L 750.734778 340.099905 
L 752.584812 347.72232 
L 754.603992 355.093921 
L 757.077751 363.247654 
L 759.562083 371.609629 
L 763.674444 385.4391 
L 765.439905 390.564152 
L 766.835359 393.971452 
L 767.998238 396.257074 
L 768.981399 397.727192 
L 769.816557 398.601164 
L 770.535428 399.051326 
L 771.169725 399.198933 
L 771.761736 399.112445 
L 772.353747 398.797578 
L 772.988044 398.19363 
L 773.580055 397.326972 
L 774.150923 396.023235 
L 774.84865 393.823195 
L 775.69438 390.357696 
L 776.719827 385.152661 
L 778.009565 377.372628 
L 779.806741 365.031564 
L 784.014247 335.70299 
L 785.356843 328.115681 
L 786.414005 323.326158 
L 787.280879 320.355239 
L 788.094894 318.319075 
L 788.85605 316.981632 
L 789.564349 316.157682 
L 790.251505 315.683916 
L 790.949232 315.47039 
L 791.710389 315.47354 
L 792.69355 315.716816 
L 795.220168 316.444849 
L 795.981324 316.373154 
L 796.647337 316.087354 
L 797.292206 315.559792 
L 797.947646 314.720508 
L 798.634802 313.457639 
L 799.364244 311.623993 
L 800.135972 309.05535 
L 800.960559 305.504764 
L 801.753431 301.105282 
L 802.704877 294.484341 
L 803.878327 284.643113 
L 805.390069 269.927713 
L 807.853257 243.395252 
L 810.559593 214.964006 
L 812.050192 201.575509 
L 813.202498 193.092996 
L 814.143373 187.704675 
L 814.90453 184.530109 
L 815.591685 182.577986 
L 817.135142 178.901965 
L 818.625741 175.910358 
L 820.063482 173.509748 
L 821.448364 171.61624 
L 822.790961 170.144533 
L 824.101842 169.027193 
L 825.402151 168.205855 
L 826.702461 167.64573 
L 828.023914 167.31883 
L 829.398225 167.210443 
L 830.857109 167.321802 
L 832.463996 167.673612 
L 834.292887 168.309079 
L 836.555214 169.34323 
L 840.69929 171.542281 
L 843.712203 173.010596 
L 845.763098 173.769281 
L 847.4757 174.172095 
L 848.998014 174.305427 
L 850.372325 174.206789 
L 851.440059 173.906973 
L 852.676939 173.317858 
L 854.209825 172.3259 
L 856.842159 170.303575 
L 859.167916 168.632962 
L 860.616228 167.858958 
L 861.789678 167.473577 
L 862.815126 167.363589 
L 863.756 167.48379 
L 864.654588 167.824713 
L 865.542604 168.404775 
L 866.441192 169.263793 
L 867.371495 170.469338 
L 868.344084 172.104916 
L 869.369532 174.280993 
L 870.437266 177.086236 
L 870.965847 179.061147 
L 871.621288 182.452839 
L 872.435303 187.932996 
L 873.46075 196.471139 
L 874.835061 209.950285 
L 879.655721 258.958424 
L 882.425486 282.7806 
L 886.146698 314.468845 
L 887.98616 328.23476 
L 889.434473 337.498917 
L 890.639638 343.852944 
L 891.717943 348.380715 
L 892.764534 351.849873 
L 893.789981 354.506462 
L 894.815429 356.566046 
L 895.883163 358.223674 
L 897.109471 359.712319 
L 901.042115 364.166499 
L 902.046419 365.872766 
L 902.96615 367.877545 
L 903.801308 370.300285 
L 904.9219 374.296924 
L 907.163084 383.358078 
L 908.69597 389.035587 
L 909.689703 391.924045 
L 910.440288 393.489655 
L 911.032299 394.262607 
L 911.49745 394.542099 
L 911.8886 394.530877 
L 912.269179 394.286837 
L 912.692043 393.726808 
L 913.442629 392.226917 
L 914.774653 389.124539 
L 916.275824 385.041423 
L 917.988427 379.712149 
L 919.975892 372.765902 
L 922.354507 363.599682 
L 925.473136 350.62656 
L 934.374442 313.072692 
L 936.774201 304.194947 
L 938.772238 297.619591 
L 939.871686 294.597695 
L 940.601128 293.268274 
L 941.288284 292.453652 
L 941.954296 291.992132 
L 942.652023 291.774679 
L 943.487181 291.756508 
L 946.098372 291.867127 
L 946.764385 291.56662 
L 947.388111 291.036261 
L 948.128124 290.08714 
L 949.07957 288.473204 
L 950.506739 285.555458 
L 952.85364 280.779514 
L 953.847372 279.264142 
L 954.608529 278.479973 
L 955.211112 278.15185 
L 955.729121 278.11093 
L 956.215416 278.300129 
L 956.712282 278.744207 
L 957.262006 279.555096 
L 958.097165 281.234643 
L 959.069754 283.71559 
L 960.211489 287.271759 
L 961.554085 292.218178 
L 963.192687 299.156905 
L 965.338727 309.292778 
L 969.884524 332.178692 
L 971.6817 342.40928 
L 974.176603 358.022089 
L 979.483558 391.521838 
L 981.354735 401.739373 
L 982.855906 408.76478 
L 984.103357 413.6034 
L 985.361381 417.568474 
L 987.274844 422.921078 
L 989.209451 427.681749 
L 991.186345 431.96384 
L 993.258383 435.924245 
L 995.499567 439.726235 
L 998.110758 443.706908 
L 1002.307692 449.629981 
L 1006.00776 455.004396 
L 1008.439234 458.934114 
L 1010.56413 462.792966 
L 1012.541024 466.848808 
L 1014.443916 471.269054 
L 1016.304521 476.164263 
L 1018.143984 481.64025 
L 1019.962303 487.759936 
L 1020.892606 491.605919 
L 1021.992055 497.150588 
L 1023.302936 504.971057 
L 1024.909823 515.985479 
L 1027.077005 532.521865 
L 1032.986543 578.426401 
L 1034.635716 589.088577 
L 1035.96774 596.32852 
L 1037.077761 601.209439 
L 1038.008064 604.36856 
L 1038.600075 605.7504 
L 1046.179928 605.647833 
L 1047.353379 603.232497 
L 1048.748833 599.824613 
L 1050.482579 594.96878 
L 1052.998625 587.184545 
L 1057.258989 573.999691 
L 1061.191633 562.414675 
L 1062.893665 556.57543 
L 1064.415978 550.549042 
L 1065.86429 543.893009 
L 1067.280888 536.319262 
L 1068.697485 527.50738 
L 1070.124655 517.1901 
L 1071.192389 508.015735 
L 1072.312981 496.187463 
L 1073.750721 478.470146 
L 1075.928476 448.507573 
L 1079.078819 405.547173 
L 1080.558847 388.416429 
L 1081.700582 377.606604 
L 1082.620313 370.838916 
L 1083.423757 366.494079 
L 1084.692351 360.892125 
L 1085.908088 356.494131 
L 1087.070966 353.088672 
L 1088.191558 350.470661 
L 1089.269864 348.497207 
L 1090.316455 347.031063 
L 1091.341902 345.965707 
L 1092.377921 345.204862 
L 1093.456227 344.687648 
L 1094.661392 344.361896 
L 1096.194277 344.193404 
L 1099.704056 343.884955 
L 1100.898649 343.500426 
L 1101.94524 342.929831 
L 1102.938973 342.129133 
L 1103.911562 341.051264 
L 1104.894723 339.616668 
L 1106.43818 336.849065 
L 1108.372787 332.922528 
L 1110.677401 327.715461 
L 1113.66917 320.365987 
L 1122.771338 297.629897 
L 1125.075952 292.672225 
L 1127.010558 289.01668 
L 1128.680875 286.31571 
L 1130.150331 284.343289 
L 1131.461212 282.940753 
L 1132.634662 281.997899 
L 1133.702396 281.416578 
L 1134.674985 281.132296 
L 1135.55243 281.103433 
L 1136.451018 281.297234 
L 1137.402464 281.733958 
L 1138.438483 282.461973 
L 1139.580218 283.545117 
L 1140.869956 285.089283 
L 1142.32884 287.197741 
L 1144.0203 290.050002 
L 1146.060623 293.950968 
L 1148.756387 299.62365 
L 1156.071951 315.265835 
L 1158.143989 319.036118 
L 1159.856592 321.710145 
L 1161.326047 323.609608 
L 1162.605214 324.917693 
L 1163.746949 325.780486 
L 1164.793539 326.300356 
L 1166.136136 326.711517 
L 1167.489303 326.893919 
L 1168.884758 326.856029 
L 1170.343642 326.591105 
L 1171.89767 326.079172 
L 1173.58913 325.282151 
L 1175.460307 324.14824 
L 1177.606347 322.577891 
L 1180.185823 320.400769 
L 1183.833033 317.000364 
L 1189.943431 311.299104 
L 1192.586337 309.159579 
L 1194.753519 307.682454 
L 1195.461818 307.266716 
L 1195.461818 307.266716 
" style="fill:none;stroke:#2ca02c;stroke-linecap:square;stroke-width:1.5;"/>
   </g>
   <g id="patch_3">
    <path d="M 172.8 630.5472 
L 172.8 85.0176 
" style="fill:none;stroke:#000000;stroke-linecap:square;stroke-linejoin:miter;stroke-width:0.8;"/>
   </g>
   <g id="patch_4">
    <path d="M 1244.16 630.5472 
L 1244.16 85.0176 
" style="fill:none;stroke:#000000;stroke-linecap:square;stroke-linejoin:miter;stroke-width:0.8;"/>
   </g>
   <g id="patch_5">
    <path d="M 172.8 630.5472 
L 1244.16 630.5472 
" style="fill:none;stroke:#000000;stroke-linecap:square;stroke-linejoin:miter;stroke-width:0.8;"/>
   </g>
   <g id="patch_6">
    <path d="M 172.8 85.0176 
L 1244.16 85.0176 
" style="fill:none;stroke:#000000;stroke-linecap:square;stroke-linejoin:miter;stroke-width:0.8;"/>
   </g>
   <g id="legend_1">
    <g id="patch_7">
     <path d="M 1167.781875 137.051975 
L 1237.16 137.051975 
Q 1239.16 137.051975 1239.16 135.051975 
L 1239.16 92.0176 
Q 1239.16 90.0176 1237.16 90.0176 
L 1167.781875 90.0176 
Q 1165.781875 90.0176 1165.781875 92.0176 
L 1165.781875 135.051975 
Q 1165.781875 137.051975 1167.781875 137.051975 
z
" style="fill:#ffffff;opacity:0.8;stroke:#cccccc;stroke-linejoin:miter;"/>
    </g>
    <g id="line2d_21">
     <path d="M 1169.781875 98.116037 
L 1189.781875 98.116037 
" style="fill:none;stroke:#1f77b4;stroke-linecap:square;stroke-width:1.5;"/>
    </g>
    <g id="line2d_22"/>
    <g id="text_18">
     <!-- original -->
     <defs>
      <path d="M 30.609375 48.390625 
Q 23.390625 48.390625 19.1875 42.75 
Q 14.984375 37.109375 14.984375 27.296875 
Q 14.984375 17.484375 19.15625 11.84375 
Q 23.34375 6.203125 30.609375 6.203125 
Q 37.796875 6.203125 41.984375 11.859375 
Q 46.1875 17.53125 46.1875 27.296875 
Q 46.1875 37.015625 41.984375 42.703125 
Q 37.796875 48.390625 30.609375 48.390625 
z
M 30.609375 56 
Q 42.328125 56 49.015625 48.375 
Q 55.71875 40.765625 55.71875 27.296875 
Q 55.71875 13.875 49.015625 6.21875 
Q 42.328125 -1.421875 30.609375 -1.421875 
Q 18.84375 -1.421875 12.171875 6.21875 
Q 5.515625 13.875 5.515625 27.296875 
Q 5.515625 40.765625 12.171875 48.375 
Q 18.84375 56 30.609375 56 
z
" id="DejaVuSans-111"/>
      <path d="M 41.109375 46.296875 
Q 39.59375 47.171875 37.8125 47.578125 
Q 36.03125 48 33.890625 48 
Q 26.265625 48 22.1875 43.046875 
Q 18.109375 38.09375 18.109375 28.8125 
L 18.109375 0 
L 9.078125 0 
L 9.078125 54.6875 
L 18.109375 54.6875 
L 18.109375 46.1875 
Q 20.953125 51.171875 25.484375 53.578125 
Q 30.03125 56 36.53125 56 
Q 37.453125 56 38.578125 55.875 
Q 39.703125 55.765625 41.0625 55.515625 
z
" id="DejaVuSans-114"/>
      <path d="M 9.421875 54.6875 
L 18.40625 54.6875 
L 18.40625 0 
L 9.421875 0 
z
M 9.421875 75.984375 
L 18.40625 75.984375 
L 18.40625 64.59375 
L 9.421875 64.59375 
z
" id="DejaVuSans-105"/>
      <path d="M 45.40625 27.984375 
Q 45.40625 37.75 41.375 43.109375 
Q 37.359375 48.484375 30.078125 48.484375 
Q 22.859375 48.484375 18.828125 43.109375 
Q 14.796875 37.75 14.796875 27.984375 
Q 14.796875 18.265625 18.828125 12.890625 
Q 22.859375 7.515625 30.078125 7.515625 
Q 37.359375 7.515625 41.375 12.890625 
Q 45.40625 18.265625 45.40625 27.984375 
z
M 54.390625 6.78125 
Q 54.390625 -7.171875 48.1875 -13.984375 
Q 42 -20.796875 29.203125 -20.796875 
Q 24.46875 -20.796875 20.265625 -20.09375 
Q 16.0625 -19.390625 12.109375 -17.921875 
L 12.109375 -9.1875 
Q 16.0625 -11.328125 19.921875 -12.34375 
Q 23.78125 -13.375 27.78125 -13.375 
Q 36.625 -13.375 41.015625 -8.765625 
Q 45.40625 -4.15625 45.40625 5.171875 
L 45.40625 9.625 
Q 42.625 4.78125 38.28125 2.390625 
Q 33.9375 0 27.875 0 
Q 17.828125 0 11.671875 7.65625 
Q 5.515625 15.328125 5.515625 27.984375 
Q 5.515625 40.671875 11.671875 48.328125 
Q 17.828125 56 27.875 56 
Q 33.9375 56 38.28125 53.609375 
Q 42.625 51.21875 45.40625 46.390625 
L 45.40625 54.6875 
L 54.390625 54.6875 
z
" id="DejaVuSans-103"/>
      <path d="M 54.890625 33.015625 
L 54.890625 0 
L 45.90625 0 
L 45.90625 32.71875 
Q 45.90625 40.484375 42.875 44.328125 
Q 39.84375 48.1875 33.796875 48.1875 
Q 26.515625 48.1875 22.3125 43.546875 
Q 18.109375 38.921875 18.109375 30.90625 
L 18.109375 0 
L 9.078125 0 
L 9.078125 54.6875 
L 18.109375 54.6875 
L 18.109375 46.1875 
Q 21.34375 51.125 25.703125 53.5625 
Q 30.078125 56 35.796875 56 
Q 45.21875 56 50.046875 50.171875 
Q 54.890625 44.34375 54.890625 33.015625 
z
" id="DejaVuSans-110"/>
      <path d="M 34.28125 27.484375 
Q 23.390625 27.484375 19.1875 25 
Q 14.984375 22.515625 14.984375 16.5 
Q 14.984375 11.71875 18.140625 8.90625 
Q 21.296875 6.109375 26.703125 6.109375 
Q 34.1875 6.109375 38.703125 11.40625 
Q 43.21875 16.703125 43.21875 25.484375 
L 43.21875 27.484375 
z
M 52.203125 31.203125 
L 52.203125 0 
L 43.21875 0 
L 43.21875 8.296875 
Q 40.140625 3.328125 35.546875 0.953125 
Q 30.953125 -1.421875 24.3125 -1.421875 
Q 15.921875 -1.421875 10.953125 3.296875 
Q 6 8.015625 6 15.921875 
Q 6 25.140625 12.171875 29.828125 
Q 18.359375 34.515625 30.609375 34.515625 
L 43.21875 34.515625 
L 43.21875 35.40625 
Q 43.21875 41.609375 39.140625 45 
Q 35.0625 48.390625 27.6875 48.390625 
Q 23 48.390625 18.546875 47.265625 
Q 14.109375 46.140625 10.015625 43.890625 
L 10.015625 52.203125 
Q 14.9375 54.109375 19.578125 55.046875 
Q 24.21875 56 28.609375 56 
Q 40.484375 56 46.34375 49.84375 
Q 52.203125 43.703125 52.203125 31.203125 
z
" id="DejaVuSans-97"/>
      <path d="M 9.421875 75.984375 
L 18.40625 75.984375 
L 18.40625 0 
L 9.421875 0 
z
" id="DejaVuSans-108"/>
     </defs>
     <g transform="translate(1197.781875 101.616037)scale(0.1 -0.1)">
      <use xlink:href="#DejaVuSans-111"/>
      <use x="61.181641" xlink:href="#DejaVuSans-114"/>
      <use x="102.294922" xlink:href="#DejaVuSans-105"/>
      <use x="130.078125" xlink:href="#DejaVuSans-103"/>
      <use x="193.554688" xlink:href="#DejaVuSans-105"/>
      <use x="221.337891" xlink:href="#DejaVuSans-110"/>
      <use x="284.716797" xlink:href="#DejaVuSans-97"/>
      <use x="345.996094" xlink:href="#DejaVuSans-108"/>
     </g>
    </g>
    <g id="line2d_23">
     <path d="M 1169.781875 112.794162 
L 1189.781875 112.794162 
" style="fill:none;stroke:#ff7f0e;stroke-linecap:square;stroke-width:1.5;"/>
    </g>
    <g id="line2d_24"/>
    <g id="text_19">
     <!-- cubic -->
     <defs>
      <path d="M 48.78125 52.59375 
L 48.78125 44.1875 
Q 44.96875 46.296875 41.140625 47.34375 
Q 37.3125 48.390625 33.40625 48.390625 
Q 24.65625 48.390625 19.8125 42.84375 
Q 14.984375 37.3125 14.984375 27.296875 
Q 14.984375 17.28125 19.8125 11.734375 
Q 24.65625 6.203125 33.40625 6.203125 
Q 37.3125 6.203125 41.140625 7.25 
Q 44.96875 8.296875 48.78125 10.40625 
L 48.78125 2.09375 
Q 45.015625 0.34375 40.984375 -0.53125 
Q 36.96875 -1.421875 32.421875 -1.421875 
Q 20.0625 -1.421875 12.78125 6.34375 
Q 5.515625 14.109375 5.515625 27.296875 
Q 5.515625 40.671875 12.859375 48.328125 
Q 20.21875 56 33.015625 56 
Q 37.15625 56 41.109375 55.140625 
Q 45.0625 54.296875 48.78125 52.59375 
z
" id="DejaVuSans-99"/>
      <path d="M 8.5 21.578125 
L 8.5 54.6875 
L 17.484375 54.6875 
L 17.484375 21.921875 
Q 17.484375 14.15625 20.5 10.265625 
Q 23.53125 6.390625 29.59375 6.390625 
Q 36.859375 6.390625 41.078125 11.03125 
Q 45.3125 15.671875 45.3125 23.6875 
L 45.3125 54.6875 
L 54.296875 54.6875 
L 54.296875 0 
L 45.3125 0 
L 45.3125 8.40625 
Q 42.046875 3.421875 37.71875 1 
Q 33.40625 -1.421875 27.6875 -1.421875 
Q 18.265625 -1.421875 13.375 4.4375 
Q 8.5 10.296875 8.5 21.578125 
z
M 31.109375 56 
z
" id="DejaVuSans-117"/>
      <path d="M 48.6875 27.296875 
Q 48.6875 37.203125 44.609375 42.84375 
Q 40.53125 48.484375 33.40625 48.484375 
Q 26.265625 48.484375 22.1875 42.84375 
Q 18.109375 37.203125 18.109375 27.296875 
Q 18.109375 17.390625 22.1875 11.75 
Q 26.265625 6.109375 33.40625 6.109375 
Q 40.53125 6.109375 44.609375 11.75 
Q 48.6875 17.390625 48.6875 27.296875 
z
M 18.109375 46.390625 
Q 20.953125 51.265625 25.265625 53.625 
Q 29.59375 56 35.59375 56 
Q 45.5625 56 51.78125 48.09375 
Q 58.015625 40.1875 58.015625 27.296875 
Q 58.015625 14.40625 51.78125 6.484375 
Q 45.5625 -1.421875 35.59375 -1.421875 
Q 29.59375 -1.421875 25.265625 0.953125 
Q 20.953125 3.328125 18.109375 8.203125 
L 18.109375 0 
L 9.078125 0 
L 9.078125 75.984375 
L 18.109375 75.984375 
z
" id="DejaVuSans-98"/>
     </defs>
     <g transform="translate(1197.781875 116.294162)scale(0.1 -0.1)">
      <use xlink:href="#DejaVuSans-99"/>
      <use x="54.980469" xlink:href="#DejaVuSans-117"/>
      <use x="118.359375" xlink:href="#DejaVuSans-98"/>
      <use x="181.835938" xlink:href="#DejaVuSans-105"/>
      <use x="209.619141" xlink:href="#DejaVuSans-99"/>
     </g>
    </g>
    <g id="line2d_25">
     <path d="M 1169.781875 127.472287 
L 1189.781875 127.472287 
" style="fill:none;stroke:#2ca02c;stroke-linecap:square;stroke-width:1.5;"/>
    </g>
    <g id="line2d_26"/>
    <g id="text_20">
     <!-- spline -->
     <defs>
      <path d="M 44.28125 53.078125 
L 44.28125 44.578125 
Q 40.484375 46.53125 36.375 47.5 
Q 32.28125 48.484375 27.875 48.484375 
Q 21.1875 48.484375 17.84375 46.4375 
Q 14.5 44.390625 14.5 40.28125 
Q 14.5 37.15625 16.890625 35.375 
Q 19.28125 33.59375 26.515625 31.984375 
L 29.59375 31.296875 
Q 39.15625 29.25 43.1875 25.515625 
Q 47.21875 21.78125 47.21875 15.09375 
Q 47.21875 7.46875 41.1875 3.015625 
Q 35.15625 -1.421875 24.609375 -1.421875 
Q 20.21875 -1.421875 15.453125 -0.5625 
Q 10.6875 0.296875 5.421875 2 
L 5.421875 11.28125 
Q 10.40625 8.6875 15.234375 7.390625 
Q 20.0625 6.109375 24.8125 6.109375 
Q 31.15625 6.109375 34.5625 8.28125 
Q 37.984375 10.453125 37.984375 14.40625 
Q 37.984375 18.0625 35.515625 20.015625 
Q 33.0625 21.96875 24.703125 23.78125 
L 21.578125 24.515625 
Q 13.234375 26.265625 9.515625 29.90625 
Q 5.8125 33.546875 5.8125 39.890625 
Q 5.8125 47.609375 11.28125 51.796875 
Q 16.75 56 26.8125 56 
Q 31.78125 56 36.171875 55.265625 
Q 40.578125 54.546875 44.28125 53.078125 
z
" id="DejaVuSans-115"/>
      <path d="M 18.109375 8.203125 
L 18.109375 -20.796875 
L 9.078125 -20.796875 
L 9.078125 54.6875 
L 18.109375 54.6875 
L 18.109375 46.390625 
Q 20.953125 51.265625 25.265625 53.625 
Q 29.59375 56 35.59375 56 
Q 45.5625 56 51.78125 48.09375 
Q 58.015625 40.1875 58.015625 27.296875 
Q 58.015625 14.40625 51.78125 6.484375 
Q 45.5625 -1.421875 35.59375 -1.421875 
Q 29.59375 -1.421875 25.265625 0.953125 
Q 20.953125 3.328125 18.109375 8.203125 
z
M 48.6875 27.296875 
Q 48.6875 37.203125 44.609375 42.84375 
Q 40.53125 48.484375 33.40625 48.484375 
Q 26.265625 48.484375 22.1875 42.84375 
Q 18.109375 37.203125 18.109375 27.296875 
Q 18.109375 17.390625 22.1875 11.75 
Q 26.265625 6.109375 33.40625 6.109375 
Q 40.53125 6.109375 44.609375 11.75 
Q 48.6875 17.390625 48.6875 27.296875 
z
" id="DejaVuSans-112"/>
      <path d="M 56.203125 29.59375 
L 56.203125 25.203125 
L 14.890625 25.203125 
Q 15.484375 15.921875 20.484375 11.0625 
Q 25.484375 6.203125 34.421875 6.203125 
Q 39.59375 6.203125 44.453125 7.46875 
Q 49.3125 8.734375 54.109375 11.28125 
L 54.109375 2.78125 
Q 49.265625 0.734375 44.1875 -0.34375 
Q 39.109375 -1.421875 33.890625 -1.421875 
Q 20.796875 -1.421875 13.15625 6.1875 
Q 5.515625 13.8125 5.515625 26.8125 
Q 5.515625 40.234375 12.765625 48.109375 
Q 20.015625 56 32.328125 56 
Q 43.359375 56 49.78125 48.890625 
Q 56.203125 41.796875 56.203125 29.59375 
z
M 47.21875 32.234375 
Q 47.125 39.59375 43.09375 43.984375 
Q 39.0625 48.390625 32.421875 48.390625 
Q 24.90625 48.390625 20.390625 44.140625 
Q 15.875 39.890625 15.1875 32.171875 
z
" id="DejaVuSans-101"/>
     </defs>
     <g transform="translate(1197.781875 130.972287)scale(0.1 -0.1)">
      <use xlink:href="#DejaVuSans-115"/>
      <use x="52.099609" xlink:href="#DejaVuSans-112"/>
      <use x="115.576172" xlink:href="#DejaVuSans-108"/>
      <use x="143.359375" xlink:href="#DejaVuSans-105"/>
      <use x="171.142578" xlink:href="#DejaVuSans-110"/>
      <use x="234.521484" xlink:href="#DejaVuSans-101"/>
     </g>
    </g>
   </g>
  </g>
 </g>
 <defs>
  <clipPath id="p52bcaba80b">
   <rect height="545.5296" width="1071.36" x="172.8" y="85.0176"/>
  </clipPath>
 </defs>
</svg>
